<?xml version="1.0" encoding="utf-8"?>
<!-- Generator: Adobe Illustrator 17.0.0, SVG Export Plug-In . SVG Version: 6.00 Build 0)  -->
<!DOCTYPE svg PUBLIC "-//W3C//DTD SVG 1.1//EN" "http://www.w3.org/Graphics/SVG/1.1/DTD/svg11.dtd">
<svg version="1.1" id="Layer_1" xmlns="http://www.w3.org/2000/svg" xmlns:xlink="http://www.w3.org/1999/xlink" x="0px" y="0px"
	 width="255.12px" height="155.91px" viewBox="0 0 255.12 155.91" enable-background="new 0 0 255.12 155.91" xml:space="preserve">
<g>
	<rect x="-5.982" y="-3.806" fill="#STROKE" width="267.085" height="163.521"/>
	<g>
		<g>
			<path fill="#FILL" stroke="#FILL" stroke-width="0.25" stroke-miterlimit="10" d="M100.699,46.488l3.615,8.186h-1.67
				l-0.85-1.992h-3.639l-0.791,1.992h-1.658l3.375-8.186H100.699z M98.637,51.48h2.643l-1.383-3.24L98.637,51.48z"/>
			<path fill="#FILL" stroke="#FILL" stroke-width="0.25" stroke-miterlimit="10" d="M106.664,46.488l4.863,5.713v-5.713h1.547
				v8.186h-1.359l-4.893-5.807v5.807h-1.547v-8.186H106.664z"/>
			<path fill="#FILL" stroke="#FILL" stroke-width="0.25" stroke-miterlimit="10" d="M118.301,46.488
				c0.852,0,1.609,0.174,2.273,0.521s1.18,0.836,1.547,1.465s0.551,1.336,0.551,2.121c0,0.801-0.185,1.511-0.554,2.13
				s-0.894,1.099-1.573,1.438s-1.459,0.51-2.338,0.51h-3.334v-8.186H118.301z M118.137,53.438c0.875,0,1.577-0.263,2.106-0.788
				s0.794-1.214,0.794-2.065c0-0.883-0.267-1.58-0.8-2.092s-1.251-0.768-2.153-0.768h-1.629v5.713H118.137z"/>
			<path fill="#FILL" stroke="#FILL" stroke-width="0.25" stroke-miterlimit="10" d="M124.617,46.488l1.98,2.736l2.004-2.736
				h1.881l-3.094,4.131v4.055h-1.582v-4.066l-3.111-4.119H124.617z"/>
			<path fill="#FILL" stroke="#FILL" stroke-width="0.25" stroke-miterlimit="10" d="M134.233,46.488l2.039,5.051l2.145-5.051
				h1.336l2.156,5.068l2.033-5.068h1.617l-3.369,8.291h-0.533l-2.578-6.07l-2.59,6.07h-0.516l-3.375-8.291H134.233z"/>
			<path fill="#FILL" stroke="#FILL" stroke-width="0.25" stroke-miterlimit="10" d="M150.463,46.383
				c0.848,0,1.61,0.175,2.288,0.524s1.218,0.854,1.62,1.512s0.604,1.38,0.604,2.165c0,0.766-0.196,1.476-0.589,2.13
				s-0.932,1.162-1.617,1.523s-1.458,0.542-2.317,0.542c-0.848,0-1.618-0.184-2.312-0.551s-1.233-0.872-1.62-1.515
				s-0.58-1.353-0.58-2.13c0-0.75,0.193-1.455,0.58-2.115s0.92-1.173,1.6-1.538S149.58,46.383,150.463,46.383z M147.574,50.584
				c0,0.543,0.123,1.031,0.369,1.465s0.589,0.77,1.028,1.008s0.937,0.357,1.491,0.357c0.84,0,1.53-0.264,2.071-0.791
				s0.812-1.207,0.812-2.039c0-0.543-0.122-1.032-0.366-1.468s-0.588-0.772-1.031-1.011s-0.942-0.357-1.497-0.357
				s-1.054,0.12-1.497,0.36s-0.784,0.576-1.022,1.008S147.574,50.037,147.574,50.584z"/>
			<path fill="#FILL" stroke="#FILL" stroke-width="0.25" stroke-miterlimit="10" d="M160.652,46.383
				c0.848,0,1.61,0.175,2.288,0.524s1.218,0.854,1.62,1.512s0.604,1.38,0.604,2.165c0,0.766-0.196,1.476-0.589,2.13
				s-0.932,1.162-1.617,1.523s-1.458,0.542-2.317,0.542c-0.848,0-1.618-0.184-2.312-0.551s-1.233-0.872-1.62-1.515
				s-0.58-1.353-0.58-2.13c0-0.75,0.193-1.455,0.58-2.115s0.92-1.173,1.6-1.538S159.77,46.383,160.652,46.383z M157.764,50.584
				c0,0.543,0.123,1.031,0.369,1.465s0.589,0.77,1.028,1.008s0.937,0.357,1.491,0.357c0.84,0,1.53-0.264,2.071-0.791
				s0.812-1.207,0.812-2.039c0-0.543-0.122-1.032-0.366-1.468s-0.588-0.772-1.031-1.011s-0.942-0.357-1.497-0.357
				s-1.054,0.12-1.497,0.36s-0.784,0.576-1.022,1.008S157.764,50.037,157.764,50.584z"/>
			<path fill="#FILL" stroke="#FILL" stroke-width="0.25" stroke-miterlimit="10" d="M170.074,46.488
				c0.852,0,1.609,0.174,2.273,0.521s1.18,0.836,1.547,1.465s0.551,1.336,0.551,2.121c0,0.801-0.185,1.511-0.554,2.13
				s-0.894,1.099-1.573,1.438s-1.459,0.51-2.338,0.51h-3.334v-8.186H170.074z M169.91,53.438c0.875,0,1.577-0.263,2.106-0.788
				s0.794-1.214,0.794-2.065c0-0.883-0.267-1.58-0.8-2.092s-1.251-0.768-2.153-0.768h-1.629v5.713H169.91z"/>
			<path fill="#FILL" stroke="#FILL" stroke-width="0.25" stroke-miterlimit="10" d="M178.295,46.383
				c0.797,0,1.564,0.199,2.303,0.598v1.406c-0.848-0.512-1.6-0.768-2.256-0.768c-0.398,0-0.71,0.077-0.935,0.231
				s-0.337,0.36-0.337,0.618c0,0.309,0.209,0.594,0.627,0.855c0.117,0.078,0.568,0.297,1.354,0.656
				c0.672,0.316,1.156,0.668,1.453,1.055s0.445,0.852,0.445,1.395c0,0.703-0.253,1.271-0.759,1.702s-1.161,0.647-1.966,0.647
				c-0.523,0-0.974-0.058-1.351-0.173s-0.8-0.313-1.269-0.595v-1.559c0.875,0.727,1.699,1.09,2.473,1.09
				c0.387,0,0.699-0.084,0.938-0.252s0.357-0.391,0.357-0.668c0-0.379-0.207-0.688-0.621-0.926c-0.344-0.188-0.787-0.412-1.33-0.674
				c-0.645-0.293-1.126-0.635-1.444-1.025s-0.478-0.844-0.478-1.359c0-0.688,0.256-1.235,0.768-1.644S177.455,46.383,178.295,46.383
				z"/>
			<path fill="#FILL" stroke="#FILL" stroke-width="0.25" stroke-miterlimit="10" d="M98.578,73.712h0.687l3.059,6.86h-1
				l-0.908-2.021h-2.911l-0.852,2.021h-1.004L98.578,73.712z M100.013,77.682l-1.101-2.471l-1.021,2.471H100.013z"/>
			<path fill="#FILL" stroke="#FILL" stroke-width="0.25" stroke-miterlimit="10" d="M103.837,76.08v0.571
				c0.397-0.439,0.848-0.659,1.353-0.659c0.28,0,0.54,0.072,0.781,0.217c0.241,0.146,0.424,0.344,0.549,0.596
				c0.126,0.253,0.188,0.652,0.188,1.199v2.568h-0.889v-2.559c0-0.459-0.07-0.787-0.21-0.984c-0.14-0.196-0.374-0.295-0.703-0.295
				c-0.42,0-0.776,0.21-1.069,0.63v3.208h-0.908V76.08H103.837z"/>
			<path fill="#FILL" stroke="#FILL" stroke-width="0.25" stroke-miterlimit="10" d="M110.946,73.751h0.894v6.821h-1.899
				c-0.664,0-1.194-0.21-1.589-0.63c-0.396-0.42-0.594-0.983-0.594-1.689c0-0.661,0.207-1.204,0.623-1.631
				c0.414-0.427,0.944-0.64,1.589-0.64c0.3,0,0.625,0.063,0.977,0.19V73.751z M110.946,79.811v-2.847
				c-0.276-0.14-0.557-0.21-0.84-0.21c-0.442,0-0.795,0.145-1.058,0.435c-0.262,0.29-0.393,0.681-0.393,1.172
				c0,0.462,0.114,0.818,0.342,1.069c0.137,0.149,0.281,0.251,0.435,0.303s0.428,0.078,0.825,0.078H110.946z"/>
			<path fill="#FILL" stroke="#FILL" stroke-width="0.25" stroke-miterlimit="10" d="M115.804,76.08h0.997l-3.183,6.782h-0.992
				l1.524-3.255l-1.734-3.527h1.013l1.213,2.537L115.804,76.08z"/>
			<path fill="#FILL" stroke="#FILL" stroke-width="0.25" stroke-miterlimit="10" d="M121.737,75.284
				c0.625,0,1.115,0.3,1.47,0.898l0.171-0.762h0.883l-0.785,3.623c-0.046,0.208-0.068,0.345-0.068,0.41
				c0,0.091,0.032,0.169,0.098,0.231c0.065,0.064,0.145,0.096,0.239,0.096c0.212,0,0.482-0.136,0.813-0.408
				c0.33-0.271,0.59-0.612,0.781-1.022c0.189-0.41,0.285-0.837,0.285-1.279c0-0.879-0.332-1.612-0.996-2.2
				c-0.664-0.587-1.494-0.881-2.49-0.881c-1.175,0-2.147,0.398-2.918,1.193c-0.77,0.797-1.154,1.803-1.154,3.021
				c0,1.185,0.37,2.104,1.111,2.759c0.74,0.654,1.779,0.981,3.117,0.981c0.788,0,1.475-0.134,2.061-0.4
				c0.222-0.104,0.451-0.237,0.688-0.397c0.237-0.162,0.459-0.382,0.664-0.662h0.879c-0.192,0.391-0.515,0.766-0.967,1.125
				c-0.452,0.36-0.946,0.624-1.481,0.791c-0.536,0.168-1.157,0.252-1.863,0.252c-1.533,0-2.74-0.389-3.621-1.164
				c-0.88-0.777-1.32-1.841-1.32-3.191c0-0.935,0.217-1.806,0.652-2.615c0.434-0.809,1.009-1.41,1.723-1.807
				c0.715-0.395,1.541-0.593,2.479-0.593c1.211,0,2.21,0.359,2.998,1.079s1.182,1.633,1.182,2.739c0,0.576-0.14,1.136-0.42,1.677
				c-0.28,0.543-0.649,0.979-1.108,1.309c-0.459,0.331-0.933,0.496-1.421,0.496c-0.329,0-0.562-0.06-0.701-0.178
				c-0.138-0.119-0.222-0.33-0.251-0.633c-0.215,0.254-0.452,0.451-0.713,0.591s-0.52,0.21-0.776,0.21
				c-0.505,0-0.926-0.208-1.262-0.625c-0.338-0.417-0.506-0.935-0.506-1.553c0-0.511,0.12-1.009,0.361-1.494
				s0.559-0.876,0.952-1.172S121.32,75.284,121.737,75.284z M120.107,78.473c0,0.403,0.1,0.736,0.298,0.998
				c0.198,0.263,0.449,0.394,0.752,0.394c0.452,0,0.86-0.252,1.224-0.757c0.362-0.505,0.544-1.072,0.544-1.704
				c0-0.423-0.104-0.765-0.31-1.022c-0.207-0.26-0.479-0.389-0.818-0.389c-0.439,0-0.831,0.253-1.174,0.76
				C120.278,77.258,120.107,77.831,120.107,78.473z"/>
			<path fill="#FILL" stroke="#FILL" stroke-width="0.25" stroke-miterlimit="10" d="M127.626,76.08v-0.269
				c0-0.723,0.154-1.262,0.461-1.616c0.309-0.354,0.677-0.532,1.106-0.532c0.186,0,0.405,0.029,0.659,0.088v0.869
				c-0.144-0.052-0.28-0.078-0.41-0.078c-0.349,0-0.59,0.093-0.725,0.278c-0.136,0.186-0.203,0.516-0.203,0.991v0.269h0.801v0.801
				h-0.801v3.691h-0.889v-3.691h-0.645V76.08H127.626z"/>
			<path fill="#FILL" stroke="#FILL" stroke-width="0.25" stroke-miterlimit="10" d="M130.043,73.751h0.889v6.821h-0.889V73.751
				z"/>
			<path fill="#FILL" stroke="#FILL" stroke-width="0.25" stroke-miterlimit="10" d="M134.876,76.08h0.997l-3.183,6.782h-0.992
				l1.524-3.255l-1.734-3.527h1.013l1.213,2.537L134.876,76.08z"/>
			<path fill="#FILL" stroke="#FILL" stroke-width="0.25" stroke-miterlimit="10" d="M136.957,74.19
				c0.146,0,0.271,0.051,0.376,0.151s0.156,0.225,0.156,0.371c0,0.144-0.052,0.267-0.156,0.371s-0.229,0.156-0.376,0.156
				c-0.137,0-0.257-0.053-0.361-0.158c-0.104-0.106-0.156-0.229-0.156-0.369c0-0.137,0.052-0.258,0.156-0.363
				C136.7,74.243,136.82,74.19,136.957,74.19z M136.518,76.08h0.889v4.492h-0.889V76.08z"/>
			<path fill="#FILL" stroke="#FILL" stroke-width="0.25" stroke-miterlimit="10" d="M139.579,76.08v0.571
				c0.397-0.439,0.848-0.659,1.353-0.659c0.28,0,0.54,0.072,0.781,0.217c0.241,0.146,0.424,0.344,0.549,0.596
				c0.126,0.253,0.188,0.652,0.188,1.199v2.568h-0.889v-2.559c0-0.459-0.07-0.787-0.21-0.984c-0.14-0.196-0.374-0.295-0.703-0.295
				c-0.42,0-0.776,0.21-1.069,0.63v3.208h-0.908V76.08H139.579z"/>
			<path fill="#FILL" stroke="#FILL" stroke-width="0.25" stroke-miterlimit="10" d="M143.461,77.633
				c0-0.479,0.175-0.857,0.525-1.135c0.35-0.279,0.827-0.418,1.433-0.418h1.851v0.693h-0.908c0.176,0.179,0.298,0.342,0.366,0.488
				s0.103,0.314,0.103,0.503c0,0.234-0.066,0.465-0.2,0.69c-0.134,0.227-0.306,0.4-0.515,0.521c-0.211,0.12-0.555,0.217-1.033,0.288
				c-0.335,0.049-0.503,0.164-0.503,0.347c0,0.104,0.062,0.189,0.188,0.257c0.125,0.066,0.352,0.136,0.681,0.207
				c0.55,0.12,0.904,0.215,1.062,0.283c0.158,0.068,0.301,0.166,0.428,0.293c0.215,0.215,0.322,0.485,0.322,0.811
				c0,0.427-0.189,0.767-0.568,1.021c-0.38,0.254-0.887,0.381-1.521,0.381c-0.642,0-1.153-0.128-1.535-0.384
				c-0.383-0.255-0.574-0.598-0.574-1.027c0-0.608,0.376-1.001,1.128-1.177c-0.3-0.192-0.449-0.383-0.449-0.571
				c0-0.144,0.064-0.273,0.192-0.391c0.129-0.117,0.303-0.203,0.521-0.259C143.791,78.761,143.461,78.287,143.461,77.633z
				 M144.921,80.782c-0.3,0-0.544,0.063-0.735,0.19c-0.189,0.127-0.285,0.29-0.285,0.488c0,0.462,0.417,0.693,1.25,0.693
				c0.394,0,0.699-0.058,0.916-0.174c0.216-0.115,0.324-0.278,0.324-0.49c0-0.208-0.137-0.379-0.41-0.51
				C145.707,80.848,145.354,80.782,144.921,80.782z M145.131,76.852c-0.241,0-0.446,0.081-0.615,0.244s-0.254,0.358-0.254,0.586
				c0,0.231,0.083,0.422,0.249,0.574c0.166,0.15,0.376,0.227,0.63,0.227c0.251,0,0.46-0.077,0.627-0.232
				c0.168-0.154,0.252-0.347,0.252-0.578c0-0.234-0.085-0.43-0.254-0.586S145.385,76.852,145.131,76.852z"/>
			<path fill="#FILL" stroke="#FILL" stroke-width="0.25" stroke-miterlimit="10" d="M148.061,76.08v-0.269
				c0-0.723,0.154-1.262,0.461-1.616c0.309-0.354,0.677-0.532,1.106-0.532c0.186,0,0.405,0.029,0.659,0.088v0.869
				c-0.144-0.052-0.28-0.078-0.41-0.078c-0.349,0-0.59,0.093-0.725,0.278c-0.136,0.186-0.203,0.516-0.203,0.991v0.269h0.801v0.801
				h-0.801v3.691h-0.889v-3.691h-0.645V76.08H148.061z"/>
			<path fill="#FILL" stroke="#FILL" stroke-width="0.25" stroke-miterlimit="10" d="M150.917,74.19
				c0.146,0,0.271,0.051,0.376,0.151s0.156,0.225,0.156,0.371c0,0.144-0.052,0.267-0.156,0.371s-0.229,0.156-0.376,0.156
				c-0.137,0-0.257-0.053-0.361-0.158c-0.104-0.106-0.156-0.229-0.156-0.369c0-0.137,0.052-0.258,0.156-0.363
				C150.66,74.243,150.78,74.19,150.917,74.19z M150.478,76.08h0.889v4.492h-0.889V76.08z"/>
			<path fill="#FILL" stroke="#FILL" stroke-width="0.25" stroke-miterlimit="10" d="M152.431,80.25v-0.957
				c0.251,0.176,0.507,0.318,0.77,0.428c0.262,0.108,0.482,0.163,0.661,0.163c0.186,0,0.345-0.046,0.479-0.137s0.2-0.2,0.2-0.327
				c0-0.13-0.043-0.238-0.129-0.324c-0.087-0.087-0.273-0.211-0.56-0.374c-0.573-0.319-0.948-0.592-1.126-0.817
				c-0.177-0.227-0.266-0.474-0.266-0.74c0-0.345,0.135-0.627,0.402-0.845c0.27-0.218,0.615-0.327,1.038-0.327
				c0.439,0,0.891,0.124,1.353,0.371v0.879c-0.527-0.319-0.959-0.479-1.294-0.479c-0.173,0-0.312,0.037-0.417,0.11
				c-0.106,0.073-0.159,0.17-0.159,0.29c0,0.104,0.048,0.204,0.144,0.299s0.265,0.208,0.506,0.342l0.317,0.181
				c0.748,0.423,1.123,0.892,1.123,1.405c0,0.368-0.144,0.67-0.433,0.906c-0.287,0.235-0.658,0.354-1.11,0.354
				c-0.267,0-0.505-0.028-0.713-0.086C153.009,80.508,152.746,80.403,152.431,80.25z"/>
			<path fill="#FILL" stroke="#FILL" stroke-width="0.25" stroke-miterlimit="10" d="M156.479,73.751h0.889v2.92
				c0.371-0.452,0.832-0.679,1.382-0.679c0.3,0,0.568,0.075,0.806,0.225s0.414,0.356,0.53,0.62c0.115,0.264,0.173,0.656,0.173,1.177
				v2.559h-0.889v-2.778c0-0.329-0.081-0.593-0.241-0.794c-0.162-0.199-0.374-0.3-0.638-0.3c-0.195,0-0.379,0.051-0.552,0.151
				s-0.363,0.269-0.571,0.503v3.218h-0.889V73.751z"/>
			<path fill="#FILL" stroke="#FILL" stroke-width="0.25" stroke-miterlimit="10" d="M162.45,76.08v1.03l0.049-0.078
				c0.43-0.693,0.859-1.04,1.289-1.04c0.335,0,0.686,0.169,1.05,0.508l-0.469,0.781c-0.31-0.293-0.596-0.439-0.859-0.439
				c-0.286,0-0.534,0.137-0.745,0.41c-0.209,0.273-0.314,0.598-0.314,0.972v2.349h-0.894V76.08H162.45z"/>
			<path fill="#FILL" stroke="#FILL" stroke-width="0.25" stroke-miterlimit="10" d="M169.086,78.404h-3.159
				c0.022,0.43,0.167,0.771,0.432,1.025c0.266,0.254,0.608,0.381,1.028,0.381c0.586,0,1.126-0.183,1.621-0.547v0.869
				c-0.273,0.183-0.544,0.312-0.813,0.391c-0.268,0.078-0.583,0.117-0.944,0.117c-0.495,0-0.896-0.103-1.201-0.308
				s-0.551-0.481-0.735-0.827c-0.184-0.348-0.275-0.748-0.275-1.204c0-0.684,0.193-1.239,0.581-1.667
				c0.388-0.429,0.891-0.643,1.509-0.643c0.596,0,1.071,0.208,1.426,0.625s0.532,0.975,0.532,1.675V78.404z M165.946,77.872h2.261
				c-0.022-0.354-0.129-0.628-0.317-0.82s-0.442-0.288-0.762-0.288s-0.58,0.096-0.783,0.288
				C166.141,77.244,166.008,77.518,165.946,77.872z"/>
			<path fill="#FILL" stroke="#FILL" stroke-width="0.25" stroke-miterlimit="10" d="M169.828,80.25v-0.957
				c0.251,0.176,0.507,0.318,0.77,0.428c0.262,0.108,0.482,0.163,0.661,0.163c0.186,0,0.345-0.046,0.479-0.137s0.2-0.2,0.2-0.327
				c0-0.13-0.043-0.238-0.129-0.324c-0.087-0.087-0.273-0.211-0.56-0.374c-0.573-0.319-0.948-0.592-1.126-0.817
				c-0.177-0.227-0.266-0.474-0.266-0.74c0-0.345,0.135-0.627,0.402-0.845c0.27-0.218,0.615-0.327,1.038-0.327
				c0.439,0,0.891,0.124,1.353,0.371v0.879c-0.527-0.319-0.959-0.479-1.294-0.479c-0.173,0-0.312,0.037-0.417,0.11
				c-0.106,0.073-0.159,0.17-0.159,0.29c0,0.104,0.048,0.204,0.144,0.299s0.265,0.208,0.506,0.342l0.317,0.181
				c0.748,0.423,1.123,0.892,1.123,1.405c0,0.368-0.144,0.67-0.433,0.906c-0.287,0.235-0.658,0.354-1.11,0.354
				c-0.267,0-0.505-0.028-0.713-0.086C170.406,80.508,170.144,80.403,169.828,80.25z"/>
			<path fill="#FILL" stroke="#FILL" stroke-width="0.25" stroke-miterlimit="10" d="M177.724,78.404h-3.159
				c0.022,0.43,0.167,0.771,0.432,1.025c0.266,0.254,0.608,0.381,1.028,0.381c0.586,0,1.126-0.183,1.621-0.547v0.869
				c-0.273,0.183-0.544,0.312-0.813,0.391c-0.268,0.078-0.583,0.117-0.944,0.117c-0.495,0-0.896-0.103-1.201-0.308
				s-0.551-0.481-0.735-0.827c-0.184-0.348-0.275-0.748-0.275-1.204c0-0.684,0.193-1.239,0.581-1.667
				c0.388-0.429,0.891-0.643,1.509-0.643c0.596,0,1.071,0.208,1.426,0.625s0.532,0.975,0.532,1.675V78.404z M174.584,77.872h2.261
				c-0.022-0.354-0.129-0.628-0.317-0.82s-0.442-0.288-0.762-0.288s-0.58,0.096-0.783,0.288
				C174.778,77.244,174.646,77.518,174.584,77.872z"/>
			<path fill="#FILL" stroke="#FILL" stroke-width="0.25" stroke-miterlimit="10" d="M181.508,77.872v1.909
				c0,0.153,0.052,0.229,0.156,0.229c0.107,0,0.275-0.08,0.503-0.239v0.542c-0.202,0.13-0.363,0.219-0.486,0.267
				c-0.121,0.047-0.249,0.07-0.383,0.07c-0.381,0-0.605-0.149-0.674-0.449c-0.378,0.293-0.779,0.439-1.206,0.439
				c-0.312,0-0.573-0.104-0.781-0.311c-0.208-0.206-0.312-0.466-0.312-0.778c0-0.283,0.102-0.536,0.306-0.759
				c0.203-0.224,0.492-0.4,0.866-0.53l1.138-0.391v-0.239c0-0.54-0.271-0.811-0.811-0.811c-0.485,0-0.957,0.251-1.416,0.752v-0.972
				c0.345-0.407,0.842-0.61,1.489-0.61c0.485,0,0.874,0.127,1.167,0.381c0.098,0.081,0.186,0.189,0.264,0.324
				c0.078,0.136,0.128,0.271,0.148,0.406C181.497,77.238,181.508,77.494,181.508,77.872z M180.634,79.684v-1.333l-0.596,0.229
				c-0.303,0.12-0.517,0.242-0.643,0.363c-0.125,0.123-0.188,0.274-0.188,0.457c0,0.186,0.06,0.337,0.178,0.454
				c0.119,0.117,0.273,0.176,0.462,0.176C180.131,80.03,180.393,79.915,180.634,79.684z"/>
			<path fill="#FILL" stroke="#FILL" stroke-width="0.25" stroke-miterlimit="10" d="M183.905,76.08v1.03l0.049-0.078
				c0.43-0.693,0.859-1.04,1.289-1.04c0.335,0,0.686,0.169,1.05,0.508l-0.469,0.781c-0.31-0.293-0.596-0.439-0.859-0.439
				c-0.286,0-0.534,0.137-0.745,0.41c-0.209,0.273-0.314,0.598-0.314,0.972v2.349h-0.894V76.08H183.905z"/>
			<path fill="#FILL" stroke="#FILL" stroke-width="0.25" stroke-miterlimit="10" d="M190.033,79.522v0.879
				c-0.446,0.166-0.882,0.249-1.309,0.249c-0.703,0-1.264-0.208-1.683-0.625c-0.418-0.417-0.627-0.975-0.627-1.675
				c0-0.706,0.203-1.276,0.61-1.709s0.942-0.649,1.606-0.649c0.231,0,0.438,0.021,0.623,0.066c0.184,0.043,0.41,0.126,0.681,0.246
				v0.947c-0.449-0.286-0.866-0.43-1.25-0.43c-0.4,0-0.729,0.141-0.986,0.422c-0.257,0.282-0.386,0.641-0.386,1.077
				c0,0.459,0.139,0.823,0.418,1.094c0.277,0.271,0.653,0.405,1.125,0.405C189.198,79.82,189.591,79.721,190.033,79.522z"/>
			<path fill="#FILL" stroke="#FILL" stroke-width="0.25" stroke-miterlimit="10" d="M191.025,73.751h0.889v2.92
				c0.371-0.452,0.832-0.679,1.382-0.679c0.3,0,0.568,0.075,0.806,0.225s0.414,0.356,0.53,0.62c0.115,0.264,0.173,0.656,0.173,1.177
				v2.559h-0.889v-2.778c0-0.329-0.081-0.593-0.241-0.794c-0.162-0.199-0.374-0.3-0.638-0.3c-0.195,0-0.379,0.051-0.552,0.151
				s-0.363,0.269-0.571,0.503v3.218h-0.889V73.751z"/>
			<path fill="#FILL" stroke="#FILL" stroke-width="0.25" stroke-miterlimit="10" d="M196.503,79.483
				c0.166,0,0.308,0.057,0.425,0.171s0.176,0.254,0.176,0.42c0,0.163-0.058,0.3-0.174,0.41c-0.115,0.11-0.258,0.166-0.427,0.166
				c-0.166,0-0.306-0.056-0.42-0.166s-0.171-0.247-0.171-0.41c0-0.166,0.057-0.306,0.171-0.42S196.337,79.483,196.503,79.483z"/>
			<path fill="#FILL" stroke="#FILL" stroke-width="0.25" stroke-miterlimit="10" d="M201.606,79.522v0.879
				c-0.446,0.166-0.882,0.249-1.309,0.249c-0.703,0-1.264-0.208-1.683-0.625c-0.418-0.417-0.627-0.975-0.627-1.675
				c0-0.706,0.203-1.276,0.61-1.709s0.942-0.649,1.606-0.649c0.231,0,0.438,0.021,0.623,0.066c0.184,0.043,0.41,0.126,0.681,0.246
				v0.947c-0.449-0.286-0.866-0.43-1.25-0.43c-0.4,0-0.729,0.141-0.986,0.422c-0.257,0.282-0.386,0.641-0.386,1.077
				c0,0.459,0.139,0.823,0.418,1.094c0.277,0.271,0.653,0.405,1.125,0.405C200.771,79.82,201.163,79.721,201.606,79.522z"/>
			<path fill="#FILL" stroke="#FILL" stroke-width="0.25" stroke-miterlimit="10" d="M204.765,76.07
				c0.684,0,1.252,0.221,1.704,0.662c0.452,0.44,0.679,0.995,0.679,1.662c0,0.647-0.229,1.186-0.688,1.613
				c-0.459,0.429-1.037,0.643-1.733,0.643c-0.674,0-1.237-0.217-1.689-0.652c-0.452-0.434-0.679-0.977-0.679-1.628
				c0-0.657,0.229-1.205,0.686-1.644C203.501,76.289,204.074,76.07,204.765,76.07z M204.716,76.871c-0.427,0-0.776,0.14-1.05,0.42
				s-0.41,0.637-0.41,1.069c0,0.43,0.14,0.78,0.42,1.052c0.28,0.272,0.64,0.408,1.079,0.408c0.437,0,0.794-0.138,1.071-0.412
				c0.279-0.275,0.418-0.628,0.418-1.058c0-0.427-0.145-0.779-0.435-1.06S205.155,76.871,204.716,76.871z"/>
			<path fill="#FILL" stroke="#FILL" stroke-width="0.25" stroke-miterlimit="10" d="M211.816,77.311v3.262h-0.894v-2.5
				c0-0.498-0.066-0.846-0.2-1.043c-0.134-0.196-0.366-0.295-0.698-0.295c-0.186,0-0.355,0.042-0.51,0.127
				c-0.155,0.085-0.332,0.234-0.53,0.449v3.262h-0.889V76.08h0.889v0.591c0.452-0.452,0.896-0.679,1.328-0.679
				c0.569,0,1.011,0.271,1.323,0.811c0.476-0.547,0.972-0.82,1.489-0.82c0.437,0,0.795,0.159,1.077,0.479
				c0.281,0.319,0.422,0.806,0.422,1.46v2.651h-0.889v-2.661c0-0.374-0.076-0.661-0.229-0.859s-0.373-0.298-0.659-0.298
				C212.478,76.754,212.135,76.939,211.816,77.311z"/>
			<path fill="#FILL" stroke="#FILL" stroke-width="0.25" stroke-miterlimit="10" d="M98.153,94.415v-1.963h-1.948v-0.82h1.948
				v-1.948h0.83v1.948h1.948v0.82h-1.948v1.963H98.153z"/>
			<path fill="#FILL" stroke="#FILL" stroke-width="0.25" stroke-miterlimit="10" d="M105.038,88.663h0.4v3.828h0.762v0.83
				h-0.762v2.251h-0.952v-2.251h-2.886v-0.42L105.038,88.663z M104.486,92.491v-1.978l-1.578,1.978H104.486z"/>
			<path fill="#FILL" stroke="#FILL" stroke-width="0.25" stroke-miterlimit="10" d="M110.038,88.663h0.4v3.828h0.762v0.83
				h-0.762v2.251h-0.952v-2.251h-2.886v-0.42L110.038,88.663z M109.486,92.491v-1.978l-1.578,1.978H109.486z"/>
			<path fill="#FILL" stroke="#FILL" stroke-width="0.25" stroke-miterlimit="10" d="M114.755,88.751h4.414l-3.087,6.901
				l-0.873-0.368l2.494-5.601h-2.948V88.751z"/>
			<path fill="#FILL" stroke="#FILL" stroke-width="0.25" stroke-miterlimit="10" d="M119.755,88.751h4.414l-3.087,6.901
				l-0.873-0.368l2.494-5.601h-2.948V88.751z"/>
			<path fill="#FILL" stroke="#FILL" stroke-width="0.25" stroke-miterlimit="10" d="M127.817,88.663h0.4v3.828h0.762v0.83
				h-0.762v2.251h-0.952v-2.251h-2.886v-0.42L127.817,88.663z M127.265,92.491v-1.978l-1.578,1.978H127.265z"/>
			<path fill="#FILL" stroke="#FILL" stroke-width="0.25" stroke-miterlimit="10" d="M131.137,95.65l-0.601-0.708
				c0.505-0.319,0.945-0.706,1.323-1.159c0.378-0.455,0.63-0.921,0.757-1.399c-0.31,0.192-0.672,0.288-1.089,0.288
				c-0.521,0-0.968-0.193-1.341-0.581c-0.372-0.388-0.559-0.853-0.559-1.396c0-0.566,0.198-1.047,0.596-1.44
				s0.882-0.591,1.455-0.591c0.645,0,1.172,0.232,1.582,0.698s0.615,1.062,0.615,1.792c0,0.827-0.257,1.663-0.771,2.507
				C132.59,94.506,131.935,95.169,131.137,95.65z M132.807,91.412c0.039-0.261,0.059-0.43,0.059-0.508
				c0-0.394-0.11-0.716-0.329-0.967c-0.221-0.251-0.503-0.376-0.848-0.376c-0.315,0-0.577,0.106-0.783,0.319
				c-0.207,0.214-0.311,0.481-0.311,0.804c0,0.296,0.112,0.552,0.337,0.767s0.493,0.322,0.806,0.322
				C132.102,91.773,132.458,91.653,132.807,91.412z"/>
			<path fill="#FILL" stroke="#FILL" stroke-width="0.25" stroke-miterlimit="10" d="M137.524,90.581
				c0-0.534,0.2-0.986,0.601-1.359c0.4-0.372,0.891-0.559,1.47-0.559c0.569,0,1.051,0.185,1.443,0.554
				c0.392,0.369,0.588,0.824,0.588,1.364c0,0.608-0.283,1.11-0.85,1.507c0.632,0.365,0.947,0.902,0.947,1.613
				c0,0.563-0.205,1.029-0.615,1.397s-0.928,0.552-1.553,0.552c-0.618,0-1.138-0.188-1.558-0.564s-0.63-0.841-0.63-1.395
				c0-0.694,0.322-1.229,0.967-1.604c-0.29-0.233-0.497-0.467-0.623-0.699C137.586,91.155,137.524,90.887,137.524,90.581z
				 M140.736,93.741v-0.098c0-0.312-0.111-0.567-0.334-0.765c-0.224-0.196-0.513-0.295-0.867-0.295c-0.349,0-0.633,0.1-0.852,0.298
				c-0.221,0.198-0.33,0.456-0.33,0.771s0.112,0.573,0.337,0.771s0.516,0.298,0.874,0.298c0.342,0,0.623-0.091,0.842-0.273
				C140.627,94.267,140.736,94.031,140.736,93.741z M140.653,90.611c0-0.296-0.102-0.54-0.306-0.732
				c-0.203-0.192-0.461-0.288-0.773-0.288c-0.315,0-0.574,0.095-0.776,0.283s-0.303,0.432-0.303,0.728
				c0,0.283,0.106,0.525,0.319,0.728c0.214,0.202,0.47,0.303,0.77,0.303c0.296,0,0.549-0.101,0.757-0.3
				C140.549,91.131,140.653,90.892,140.653,90.611z"/>
			<path fill="#FILL" stroke="#FILL" stroke-width="0.25" stroke-miterlimit="10" d="M144.107,94.63h2.597v0.942h-4.316v-0.068
				l0.41-0.483c0.642-0.794,1.151-1.468,1.531-2.021c0.379-0.554,0.626-0.972,0.742-1.255c0.115-0.283,0.173-0.563,0.173-0.84
				c0-0.384-0.109-0.692-0.327-0.926c-0.218-0.232-0.508-0.349-0.869-0.349c-0.273,0-0.543,0.081-0.809,0.241
				c-0.265,0.162-0.503,0.389-0.715,0.682v-1.24c0.53-0.433,1.077-0.649,1.641-0.649c0.596,0,1.086,0.198,1.473,0.596
				c0.385,0.397,0.578,0.902,0.578,1.514c0,0.273-0.048,0.566-0.144,0.877c-0.097,0.311-0.267,0.669-0.511,1.074
				s-0.659,0.958-1.244,1.658L144.107,94.63z"/>
			<path fill="#FILL" stroke="#FILL" stroke-width="0.25" stroke-miterlimit="10" d="M147.533,88.751h4.414l-3.087,6.901
				l-0.873-0.368l2.494-5.601h-2.948V88.751z"/>
			<path fill="#FILL" stroke="#FILL" stroke-width="0.25" stroke-miterlimit="10" d="M156.885,94.63h2.597v0.942h-4.316v-0.068
				l0.41-0.483c0.642-0.794,1.151-1.468,1.531-2.021c0.379-0.554,0.626-0.972,0.742-1.255c0.115-0.283,0.173-0.563,0.173-0.84
				c0-0.384-0.109-0.692-0.327-0.926c-0.218-0.232-0.508-0.349-0.869-0.349c-0.273,0-0.543,0.081-0.809,0.241
				c-0.265,0.162-0.503,0.389-0.715,0.682v-1.24c0.53-0.433,1.077-0.649,1.641-0.649c0.596,0,1.086,0.198,1.473,0.596
				c0.385,0.397,0.578,0.902,0.578,1.514c0,0.273-0.048,0.566-0.144,0.877c-0.097,0.311-0.267,0.669-0.511,1.074
				s-0.659,0.958-1.244,1.658L156.885,94.63z"/>
			<path fill="#FILL" stroke="#FILL" stroke-width="0.25" stroke-miterlimit="10" d="M161.845,88.751h0.977v6.821h-0.977V88.751
				z"/>
			<path fill="#FILL" stroke="#FILL" stroke-width="0.25" stroke-miterlimit="10" d="M167.362,88.663
				c0.625,0,1.142,0.328,1.551,0.983c0.408,0.656,0.612,1.489,0.612,2.498c0,1.035-0.204,1.877-0.612,2.524
				c-0.409,0.647-0.938,0.972-1.59,0.972c-0.661,0-1.191-0.317-1.592-0.952s-0.601-1.477-0.601-2.524
				c0-1.035,0.207-1.877,0.62-2.527C166.164,88.988,166.701,88.663,167.362,88.663z M167.372,89.591h-0.049
				c-0.374,0-0.672,0.23-0.891,0.69c-0.221,0.461-0.33,1.085-0.33,1.873c0,0.808,0.107,1.44,0.322,1.899s0.511,0.688,0.889,0.688
				s0.676-0.229,0.894-0.688s0.327-1.082,0.327-1.87c0-0.791-0.105-1.421-0.314-1.89C168.009,89.825,167.727,89.591,167.372,89.591z
				"/>
			<path fill="#FILL" stroke="#FILL" stroke-width="0.25" stroke-miterlimit="10" d="M100.59,105.284
				c0.625,0,1.115,0.3,1.47,0.898l0.171-0.762h0.883l-0.785,3.623c-0.046,0.208-0.068,0.345-0.068,0.41
				c0,0.091,0.032,0.169,0.098,0.231c0.065,0.064,0.145,0.096,0.239,0.096c0.212,0,0.482-0.136,0.813-0.408
				c0.33-0.271,0.59-0.612,0.781-1.022c0.189-0.41,0.285-0.837,0.285-1.279c0-0.879-0.332-1.612-0.996-2.2
				c-0.664-0.587-1.494-0.881-2.49-0.881c-1.175,0-2.147,0.398-2.918,1.193c-0.77,0.797-1.154,1.803-1.154,3.021
				c0,1.185,0.37,2.104,1.111,2.759c0.74,0.654,1.779,0.981,3.117,0.981c0.788,0,1.475-0.134,2.061-0.4
				c0.222-0.104,0.451-0.237,0.688-0.397c0.237-0.162,0.459-0.382,0.664-0.662h0.879c-0.192,0.391-0.515,0.766-0.967,1.125
				c-0.452,0.36-0.946,0.624-1.481,0.791c-0.536,0.168-1.157,0.252-1.863,0.252c-1.533,0-2.74-0.389-3.621-1.164
				c-0.88-0.777-1.32-1.841-1.32-3.191c0-0.935,0.217-1.806,0.652-2.615c0.434-0.809,1.009-1.41,1.723-1.807
				c0.715-0.395,1.541-0.593,2.479-0.593c1.211,0,2.21,0.359,2.998,1.079s1.182,1.633,1.182,2.739c0,0.576-0.14,1.136-0.42,1.677
				c-0.28,0.543-0.649,0.979-1.108,1.309c-0.459,0.331-0.933,0.496-1.421,0.496c-0.329,0-0.562-0.06-0.701-0.178
				c-0.138-0.119-0.222-0.33-0.251-0.633c-0.215,0.254-0.452,0.451-0.713,0.591s-0.52,0.21-0.776,0.21
				c-0.505,0-0.926-0.208-1.262-0.625c-0.338-0.417-0.506-0.935-0.506-1.553c0-0.511,0.12-1.009,0.361-1.494
				s0.559-0.876,0.952-1.172S100.173,105.284,100.59,105.284z M98.959,108.473c0,0.403,0.1,0.736,0.298,0.998
				c0.198,0.263,0.449,0.394,0.752,0.394c0.452,0,0.86-0.252,1.224-0.757c0.362-0.505,0.544-1.072,0.544-1.704
				c0-0.423-0.104-0.765-0.31-1.022c-0.207-0.26-0.479-0.389-0.818-0.389c-0.439,0-0.831,0.253-1.174,0.76
				C99.131,107.258,98.959,107.831,98.959,108.473z"/>
			<path fill="#FILL" stroke="#FILL" stroke-width="0.25" stroke-miterlimit="10" d="M108.676,103.712h0.687l3.059,6.86h-1
				l-0.908-2.021h-2.911l-0.852,2.021h-1.004L108.676,103.712z M110.11,107.682l-1.101-2.471l-1.021,2.471H110.11z"/>
			<path fill="#FILL" stroke="#FILL" stroke-width="0.25" stroke-miterlimit="10" d="M113.935,106.08v0.571
				c0.397-0.439,0.848-0.659,1.353-0.659c0.28,0,0.54,0.072,0.781,0.217c0.241,0.146,0.424,0.344,0.549,0.596
				c0.126,0.253,0.188,0.652,0.188,1.199v2.568h-0.889v-2.559c0-0.459-0.07-0.787-0.21-0.984c-0.14-0.196-0.374-0.295-0.703-0.295
				c-0.42,0-0.776,0.21-1.069,0.63v3.208h-0.908v-4.492H113.935z"/>
			<path fill="#FILL" stroke="#FILL" stroke-width="0.25" stroke-miterlimit="10" d="M121.044,103.751h0.894v6.821h-1.899
				c-0.664,0-1.194-0.21-1.589-0.63c-0.396-0.42-0.594-0.983-0.594-1.689c0-0.661,0.207-1.204,0.623-1.631
				c0.414-0.427,0.944-0.64,1.589-0.64c0.3,0,0.625,0.063,0.977,0.19V103.751z M121.044,109.811v-2.847
				c-0.276-0.14-0.557-0.21-0.84-0.21c-0.442,0-0.795,0.145-1.058,0.435c-0.262,0.29-0.393,0.681-0.393,1.172
				c0,0.462,0.114,0.818,0.342,1.069c0.137,0.149,0.281,0.251,0.435,0.303s0.428,0.078,0.825,0.078H121.044z"/>
			<path fill="#FILL" stroke="#FILL" stroke-width="0.25" stroke-miterlimit="10" d="M125.901,106.08h0.997l-3.183,6.782h-0.992
				l1.524-3.255l-1.734-3.527h1.013l1.213,2.537L125.901,106.08z"/>
			<path fill="#FILL" stroke="#FILL" stroke-width="0.25" stroke-miterlimit="10" d="M127.065,103.741h5.698v0.869h-2.378v5.962
				h-0.981v-5.962h-2.339V103.741z"/>
			<path fill="#FILL" stroke="#FILL" stroke-width="0.25" stroke-miterlimit="10" d="M142.375,103.751h0.974l-2.758,6.851
				h-0.215l-2.229-5.547l-2.254,5.547h-0.21l-2.749-6.851h0.984l1.879,4.702l1.893-4.702h0.924l1.9,4.702L142.375,103.751z"/>
			<path fill="#FILL" stroke="#FILL" stroke-width="0.25" stroke-miterlimit="10" d="M145.234,106.07
				c0.684,0,1.252,0.221,1.704,0.662c0.452,0.44,0.679,0.995,0.679,1.662c0,0.647-0.229,1.186-0.688,1.613
				c-0.459,0.429-1.037,0.643-1.733,0.643c-0.674,0-1.237-0.217-1.689-0.652c-0.452-0.434-0.679-0.977-0.679-1.628
				c0-0.657,0.229-1.205,0.686-1.644C143.97,106.289,144.543,106.07,145.234,106.07z M145.185,106.871
				c-0.427,0-0.776,0.14-1.05,0.42s-0.41,0.637-0.41,1.069c0,0.43,0.14,0.78,0.42,1.052c0.28,0.272,0.64,0.408,1.079,0.408
				c0.437,0,0.794-0.138,1.071-0.412c0.279-0.275,0.418-0.628,0.418-1.058c0-0.427-0.145-0.779-0.435-1.06
				S145.624,106.871,145.185,106.871z"/>
			<path fill="#FILL" stroke="#FILL" stroke-width="0.25" stroke-miterlimit="10" d="M150.751,106.07
				c0.684,0,1.252,0.221,1.704,0.662c0.452,0.44,0.679,0.995,0.679,1.662c0,0.647-0.229,1.186-0.688,1.613
				c-0.459,0.429-1.037,0.643-1.733,0.643c-0.674,0-1.237-0.217-1.689-0.652c-0.452-0.434-0.679-0.977-0.679-1.628
				c0-0.657,0.229-1.205,0.686-1.644C149.487,106.289,150.061,106.07,150.751,106.07z M150.702,106.871
				c-0.427,0-0.776,0.14-1.05,0.42s-0.41,0.637-0.41,1.069c0,0.43,0.14,0.78,0.42,1.052c0.28,0.272,0.64,0.408,1.079,0.408
				c0.437,0,0.794-0.138,1.071-0.412c0.279-0.275,0.418-0.628,0.418-1.058c0-0.427-0.145-0.779-0.435-1.06
				S151.142,106.871,150.702,106.871z"/>
			<path fill="#FILL" stroke="#FILL" stroke-width="0.25" stroke-miterlimit="10" d="M157.118,103.751h0.894v6.821h-1.899
				c-0.664,0-1.194-0.21-1.589-0.63c-0.396-0.42-0.594-0.983-0.594-1.689c0-0.661,0.207-1.204,0.623-1.631
				c0.414-0.427,0.944-0.64,1.589-0.64c0.3,0,0.625,0.063,0.977,0.19V103.751z M157.118,109.811v-2.847
				c-0.276-0.14-0.557-0.21-0.84-0.21c-0.442,0-0.795,0.145-1.058,0.435c-0.262,0.29-0.393,0.681-0.393,1.172
				c0,0.462,0.114,0.818,0.342,1.069c0.137,0.149,0.281,0.251,0.435,0.303s0.428,0.078,0.825,0.078H157.118z"/>
			<path fill="#FILL" stroke="#FILL" stroke-width="0.25" stroke-miterlimit="10" d="M158.998,110.25v-0.957
				c0.251,0.176,0.507,0.318,0.77,0.428c0.262,0.108,0.482,0.163,0.661,0.163c0.186,0,0.345-0.046,0.479-0.137s0.2-0.2,0.2-0.327
				c0-0.13-0.043-0.238-0.129-0.324c-0.087-0.087-0.273-0.211-0.56-0.374c-0.573-0.319-0.948-0.592-1.126-0.817
				c-0.177-0.227-0.266-0.474-0.266-0.74c0-0.345,0.135-0.627,0.402-0.845c0.27-0.218,0.615-0.327,1.038-0.327
				c0.439,0,0.891,0.124,1.353,0.371v0.879c-0.527-0.319-0.959-0.479-1.294-0.479c-0.173,0-0.312,0.037-0.417,0.11
				c-0.106,0.073-0.159,0.17-0.159,0.29c0,0.104,0.048,0.204,0.144,0.299s0.265,0.208,0.506,0.342l0.317,0.181
				c0.748,0.423,1.123,0.892,1.123,1.405c0,0.368-0.144,0.67-0.433,0.906c-0.287,0.235-0.658,0.354-1.11,0.354
				c-0.267,0-0.505-0.028-0.713-0.086C159.576,110.508,159.314,110.403,158.998,110.25z"/>
		</g>
	</g>
	<g>
		<path fill="#FILL" d="M51.083,76.876c-1.286-3.827-3.24-7.997-6.174-12.248v30.257c1.859-3.186,3.32-6.421,4.374-9.691
			C50.169,82.445,50.769,79.667,51.083,76.876z"/>
		<rect x="43.313" y="46.773" fill="#FILL" width="0.002" height="0.002"/>
		<path fill="#FILL" d="M38.289,85.258c1.062,3.28,2.536,6.526,4.409,9.721V63.253c-2.933,3.972-4.984,7.898-6.41,11.566
			C36.506,78.325,37.173,81.814,38.289,85.258z"/>
		<path fill="#FILL" d="M50.132,108.386c-1.905-2.02-3.649-4.071-5.223-6.149v6.859C46.694,109.006,48.439,108.764,50.132,108.386
			z"/>
		<path fill="#FILL" d="M49.267,59.252c-1.364-4.229-3.119-7.507-4.358-9.52v9.589c0.711-0.065,1.605-0.118,2.642-0.118
			C48.087,59.204,48.662,59.218,49.267,59.252z"/>
		<path fill="#FILL" d="M51.661,59.481c3.186,0.433,6.906,1.461,10.512,3.677c5.684,3.493,9.8,9.112,12.261,16.724
			c0.039-0.638,0.061-1.28,0.061-1.927c0-16.426-12.701-29.885-28.818-31.092C46.891,48.583,49.74,53.047,51.661,59.481z"/>
		<path fill="#FILL" d="M72.934,82.597c-2.203-8.143-6.212-14.048-11.919-17.555c-2.958-1.818-6.01-2.764-8.723-3.228
			c0.282,1.164,0.529,2.381,0.729,3.649c0.586,3.725,0.689,7.458,0.313,11.168c1.337,4.115,1.944,7.843,2.182,10.881
			c0.381,4.86-0.087,8.652-0.474,10.755C64.501,95.318,71.571,84.754,72.934,82.597z"/>
		<path fill="#FILL" d="M50.835,65.807c-0.237-1.505-0.547-2.938-0.905-4.292c-0.856-0.072-1.655-0.1-2.38-0.1
			c-0.83,0-1.563,0.037-2.167,0.086c2.555,3.39,4.49,6.757,5.951,9.979C51.299,69.59,51.133,67.697,50.835,65.807z"/>
		<polygon fill="#FILL" points="43.312,109.136 43.314,109.136 43.316,109.136 		"/>
		<path fill="#FILL" d="M42.441,98.75c-2.769-4.203-4.869-8.507-6.278-12.878c-0.645-2.003-1.146-4.021-1.503-6.048
			c-0.762,2.893-1.154,5.524-1.335,7.761c-0.57,7.065,0.781,11.85,0.794,11.897l0.507,1.758l-1.792-0.367
			c-6.477-1.33-11.928-6.044-15.36-9.764c-1.881-2.039-3.363-3.984-4.375-5.42c2.74,10.736,11.05,19.244,21.672,22.263
			C37.712,104.949,40.271,101.877,42.441,98.75z"/>
		<path fill="#FILL" d="M69.153,91.108c-3.432,3.72-8.883,8.434-15.36,9.764l-1.797,0.369l0.513-1.76
			c0.014-0.048,1.364-4.832,0.794-11.897c-0.136-1.682-0.392-3.587-0.834-5.658c-0.299,1.32-0.658,2.636-1.08,3.945
			c-1.409,4.372-3.509,8.675-6.278,12.879c2.119,3.053,4.608,6.054,7.461,8.989c10.278-3.191,18.279-11.557,20.957-22.05
			C72.516,87.124,71.034,89.069,69.153,91.108z"/>
		<path fill="#FILL" d="M35.296,61.668c-2.941,0.396-6.371,1.339-9.683,3.374c-5.707,3.507-9.715,9.411-11.919,17.554
			c1.364,2.156,8.445,12.723,17.893,15.672c-0.387-2.104-0.855-5.896-0.474-10.755c0.279-3.56,1.066-8.068,2.94-13.037
			c-0.153-2.998,0.006-6.008,0.478-9.013C34.739,64.143,34.998,62.876,35.296,61.668z"/>
		<path fill="#FILL" d="M39.077,59.204c1.593,0,2.852,0.124,3.621,0.227v-9.783c-1.238,2.002-3.018,5.301-4.4,9.566
			C38.565,59.207,38.826,59.204,39.077,59.204z"/>
		<path fill="#FILL" d="M24.455,63.158c3.974-2.442,8.086-3.442,11.47-3.792c1.942-6.445,4.805-10.892,5.989-12.56
			c-16.571,0.733-29.781,14.397-29.781,31.148c0,0.647,0.022,1.289,0.061,1.927C14.655,72.27,18.771,66.651,24.455,63.158z"/>
		<path fill="#FILL" d="M42.698,109.128v-6.964c-1.631,2.159-3.444,4.288-5.432,6.384
			C39.028,108.894,40.843,109.092,42.698,109.128z"/>
		<path fill="#FILL" d="M37.638,61.452c-0.374,1.403-0.696,2.892-0.938,4.456c-0.179,1.154-0.308,2.309-0.389,3.464
			c1.312-2.571,2.931-5.213,4.934-7.872c-0.604-0.049-1.337-0.086-2.167-0.086C38.625,61.415,38.143,61.426,37.638,61.452z"/>
	</g>
	<line fill="none" stroke="#FILL" stroke-miterlimit="10" x1="86.107" y1="41.546" x2="86.107" y2="114.364"/>
</g>
</svg>
