<?xml version="1.0" encoding="utf-8"?>
<!-- Generator: Adobe Illustrator 19.1.0, SVG Export Plug-In . SVG Version: 6.00 Build 0)  -->
<svg version="1.1"
	 id="svg2" xmlns:cc="http://creativecommons.org/ns#" xmlns:svg="http://www.w3.org/2000/svg" xmlns:dc="http://purl.org/dc/elements/1.1/" xmlns:rdf="http://www.w3.org/1999/02/22-rdf-syntax-ns#" xmlns:inkscape="http://www.inkscape.org/namespaces/inkscape" xmlns:sodipodi="http://sodipodi.sourceforge.net/DTD/sodipodi-0.dtd" sodipodi:docname="jar of chocolate.svg" inkscape:version="0.47 r22583"
	 xmlns="http://www.w3.org/2000/svg" xmlns:xlink="http://www.w3.org/1999/xlink" x="0px" y="0px"
	 viewBox="272 -426.4 744.1 1052.4" style="enable-background:new 272 -426.4 744.1 1052.4;" xml:space="preserve">
<style type="text/css">
	.st0{fill:#STROKE;}
	.st1{fill:url(#path3620_1_);}
	.st2{filter:url(#filter3674);}
	.st3{fill:url(#SVGID_1_);}
	.st4{filter:url(#filter3700);}
	.st5{fill:#FFFFFF;}
	.st6{opacity:0.6036;filter:url(#filter3732);enable-background:new    ;}
	.st7{fill:url(#SVGID_2_);}
	.st8{opacity:0.7252;filter:url(#filter3772);enable-background:new    ;}
	.st9{fill:url(#SVGID_3_);}
	.st10{opacity:0.545;filter:url(#filter3758);enable-background:new    ;}
	.st11{fill:url(#SVGID_4_);}
	.st12{fill:#C8C4B7;}
	.st13{opacity:0.455;filter:url(#filter3812);enable-background:new    ;}
	.st14{fill:none;stroke:#646464;stroke-width:3;stroke-linecap:round;}
	.st15{fill:#F2F2F2;}
	.st16{fill:#E6E6E6;}
	.st17{opacity:0.6261;filter:url(#filter3962);enable-background:new    ;}
	.st18{fill:url(#SVGID_5_);}
	.st19{fill:url(#path3461_1_);}
	.st20{fill:url(#path3463_1_);}
	.st21{fill:url(#path3465_1_);}
	.st22{fill:url(#path3467_1_);}
	.st23{fill:url(#path3473_1_);}
	.st24{fill:url(#path3475_1_);}
	.st25{fill:url(#path3479_1_);}
	.st26{fill:none;stroke:url(#path3481_1_);stroke-width:2;}
	.st27{fill:url(#path3483_1_);}
	.st28{fill:url(#path2991_1_);stroke:url(#path2991_2_);stroke-width:3;stroke-linecap:round;stroke-linejoin:round;}
	.st29{filter:url(#filter3803);}
	.st30{fill:url(#SVGID_6_);}
	.st31{fill:url(#SVGID_7_);}
	.st32{fill:url(#SVGID_8_);}
	.st33{fill:url(#SVGID_9_);}
	.st34{fill:url(#SVGID_10_);}
	.st35{fill:url(#path3831_1_);}
	.st36{fill:#AA0000;}
	.st37{fill:#CCCCCC;}
	.st38{fill:url(#path4207_1_);}
	.st39{fill:url(#path3861_1_);}
	.st40{fill:url(#path3871_1_);}
	.st41{fill:url(#path3879_1_);}
	.st42{fill:url(#path3889_1_);}
	.st43{fill:url(#path3897_1_);}
	.st44{fill:url(#path3893_1_);}
	.st45{fill:url(#path4598_1_);}
	.st46{fill:url(#path4610_1_);}
	.st47{fill:url(#path4634_1_);}
	.st48{fill:none;stroke:url(#path4624_1_);stroke-width:2;}
	.st49{fill:url(#path4656_1_);}
	.st50{fill:url(#path4268_1_);}
	.st51{fill:url(#path4278_1_);}
	.st52{fill:url(#path4282_1_);}
	.st53{fill:url(#path4286_1_);}
	.st54{fill:url(#path4290_1_);}
	.st55{fill:#D40000;}
	.st56{fill:url(#path3423_1_);}
	.st57{fill:url(#path3425_1_);}
	.st58{fill:url(#path3427_1_);}
	.st59{fill:url(#path3429_1_);}
</style>
<filter  width="1.1900935" height="4.3899975" y="-1.6949987" x="-0.095046733" id="filter3962" inkscape:collect="always">
	<feGaussianBlur  stdDeviation="5.4043481" id="feGaussianBlur3964" inkscape:collect="always"></feGaussianBlur>
</filter>
<filter  width="5.3406897" height="1.0811347" y="-0.040567367" x="-2.1703449" id="filter3812" inkscape:collect="always">
	<feGaussianBlur  stdDeviation="1.1058811" id="feGaussianBlur3814" inkscape:collect="always"></feGaussianBlur>
</filter>
<filter  width="1.222667" height="1.2602594" y="-0.13012971" x="-0.11133349" id="filter3803" inkscape:collect="always">
	<feGaussianBlur  stdDeviation="2.1269999" id="feGaussianBlur3805" inkscape:collect="always"></feGaussianBlur>
</filter>
<filter  width="1.2771429" height="1.5135294" y="-0.25676469" x="-0.13857143" id="filter3772" inkscape:collect="always">
	<feGaussianBlur  stdDeviation="4.6391303" id="feGaussianBlur3774" inkscape:collect="always"></feGaussianBlur>
</filter>
<filter  width="1.3306122" height="1.395122" y="-0.19756098" x="-0.16530612" id="filter3758" inkscape:collect="always">
	<feGaussianBlur  stdDeviation="4.3043483" id="feGaussianBlur3760" inkscape:collect="always"></feGaussianBlur>
</filter>
<filter  width="1.6681818" height="1.5444445" y="-0.27222224" x="-0.33409091" id="filter3732" inkscape:collect="always">
	<feGaussianBlur  stdDeviation="7.811594" id="feGaussianBlur3734" inkscape:collect="always"></feGaussianBlur>
</filter>
<filter  width="1.6586046" height="2.7700001" y="-0.88500003" x="-0.3293023" id="filter3700" inkscape:collect="always">
	<feGaussianBlur  stdDeviation="15.049274" id="feGaussianBlur3702" inkscape:collect="always"></feGaussianBlur>
</filter>
<filter  width="1.9166667" height="1.2239819" y="-0.11199095" x="-0.45833336" id="filter3674" inkscape:collect="always">
	<feGaussianBlur  stdDeviation="13.152174" id="feGaussianBlur3676" inkscape:collect="always"></feGaussianBlur>
</filter>
<defs>
	
	
		<inkscape:perspective  id="perspective10" inkscape:vp_z="744.09448 : 526.18109 : 1" sodipodi:type="inkscape:persp3d" inkscape:vp_y="0 : 1000 : 0" inkscape:vp_x="0 : 526.18109 : 1" inkscape:persp3d-origin="372.04724 : 350.78739 : 1">
		</inkscape:perspective>
	
		<inkscape:perspective  id="perspective2824" inkscape:vp_z="1 : 0.5 : 1" sodipodi:type="inkscape:persp3d" inkscape:vp_y="0 : 1000 : 0" inkscape:vp_x="0 : 0.5 : 1" inkscape:persp3d-origin="0.5 : 0.33333333 : 1">
		</inkscape:perspective>
	
		<inkscape:perspective  id="perspective4100" inkscape:vp_z="720.35748 : 100.36822 : 1" sodipodi:type="inkscape:persp3d" inkscape:vp_y="0 : 1000 : 0" inkscape:vp_x="0 : 100.36822 : 1" inkscape:persp3d-origin="360.17874 : 66.912145 : 1">
		</inkscape:perspective>
</defs>
<sodipodi:namedview  showgrid="false" inkscape:cy="526.18109" inkscape:cx="372.04724" inkscape:zoom="0.39340068" borderopacity="1.0" bordercolor="#666666" pagecolor="#ffffff" id="base" inkscape:window-maximized="1" inkscape:window-y="-4" inkscape:window-x="-4" inkscape:window-height="551" inkscape:window-width="1024" inkscape:current-layer="layer1" inkscape:document-units="px" inkscape:pageshadow="2" inkscape:pageopacity="0.0">
	</sodipodi:namedview>
<g id="layer1" inkscape:label="Livello 1" inkscape:groupmode="layer">
	<g id="g4352">
		<path id="path2834" sodipodi:nodetypes="ccccccccc" class="st0" d="M376.4-137.1c-18.2,0.4-74.4,89.7-68,121.1
			c-7.1,22-12.4,387.8-2.1,429.2c17.4,48.8,95.1,100.2,163.6,108.4l293.2,2.1c77.6-9.5,185.9-72,195.5-110.5c7.5-33,0-276.2,0-414.4
			C950.5-60.8,912.2-117,880-143.4L376.4-137.1L376.4-137.1z"/>
		
			<linearGradient id="path3620_1_" gradientUnits="userSpaceOnUse" x1="581.8796" y1="-158.1091" x2="949.9199" y2="-158.1091" gradientTransform="matrix(1.7716 0 0 -1.7716 -723.2937 -63.6069)">
			<stop  offset="0" style="stop-color:#FFFFFF"/>
			<stop  offset="1" style="stop-color:#C8C8C8"/>
		</linearGradient>
		<path id="path3620" sodipodi:nodetypes="ccccc" class="st1" d="M303.8,12.8c-7.2,121.4-4.8,242.9-1.8,364.3
			c78.6,72.3,605.3,53,658.4-11.3c4.1-118.8-1.1-237.6-1.8-356.3C887.6,75.6,340.2,80.9,303.8,12.8L303.8,12.8z"/>
		<g id="path3636" class="st2">
			
				<linearGradient id="SVGID_1_" gradientUnits="userSpaceOnUse" x1="868.7239" y1="-144.8382" x2="937.5934" y2="-144.8382" gradientTransform="matrix(1.7716 0 0 -1.7716 -723.2937 -63.6069)">
				<stop  offset="0" style="stop-color:#FFFFFF"/>
				<stop  offset="1" style="stop-color:#FFFFFF;stop-opacity:0"/>
			</linearGradient>
			<polygon class="st3" points="815.7,-31.8 872.2,-56.7 935.5,13.4 937.7,399.7 901.6,442.6 885.7,29.2 815.7,-31.8 			"/>
		</g>
		<g id="path3686" class="st4">
			<path class="st5" d="M413.5,15.6c0,0,45.2-72.3,61-72.3c15.8,0,133.3,13.6,133.3,13.6L413.5,15.6L413.5,15.6z"/>
		</g>
		<g id="path3714" class="st6">
			
				<linearGradient id="SVGID_2_" gradientUnits="userSpaceOnUse" x1="593.2457" y1="-10.2875" x2="649.3616" y2="-10.2875" gradientTransform="matrix(1.7716 0 0 -1.7716 -723.2937 -63.6069)">
				<stop  offset="0" style="stop-color:#FFFFFF"/>
				<stop  offset="1" style="stop-color:#FFFFFF;stop-opacity:0"/>
			</linearGradient>
			<polygon class="st7" points="366.1,-106.4 427.1,-81.5 363.8,15.6 327.7,6.6 366.1,-106.4 			"/>
		</g>
		<g id="path3762" class="st8">
			
				<linearGradient id="SVGID_3_" gradientUnits="userSpaceOnUse" x1="597.8472" y1="-290.8672" x2="679.1949" y2="-290.8672" gradientTransform="matrix(1.7716 0 0 -1.7716 -723.2937 -63.6069)">
				<stop  offset="0" style="stop-color:#FFFFFF"/>
				<stop  offset="1" style="stop-color:#FFFFFF;stop-opacity:0"/>
			</linearGradient>
			<polygon class="st9" points="336.7,413.3 395.5,429.1 479.1,485.6 431.6,490.1 			"/>
		</g>
		<g id="path3748" class="st10">
			
				<linearGradient id="SVGID_4_" gradientUnits="userSpaceOnUse" x1="869.4993" y1="-291.5049" x2="932.9921" y2="-291.5049" gradientTransform="matrix(1.7716 0 0 -1.7716 -723.2937 -63.6069)">
				<stop  offset="0" style="stop-color:#FFFFFF"/>
				<stop  offset="1" style="stop-color:#FFFFFF;stop-opacity:0"/>
			</linearGradient>
			<polygon class="st11" points="818,431.3 818,499.1 919.6,438.1 928.7,406.5 			"/>
		</g>
		<g id="g4655" transform="matrix(1.771561,0,0,1.771561,-303.5645,-416.91532)">
			<g id="g4592" transform="matrix(1.01,0,0,1.01,-3.7663606,-3.5717716)">
				<path id="path4594" class="st12" d="M689.4,74.6c0,13.6-72,24.6-160.7,24.6s-160.7-11-160.7-24.6S439.9,50,528.7,50
					S689.4,61,689.4,74.6z"/>
				<path id="path4596" sodipodi:nodetypes="ccccc" class="st12" d="M365.5,72.8l-1.2,88.8c44,33.2,284.3,37.9,328.7-3.6l-1.2-84
					C653.8,100.7,416.7,113.1,365.5,72.8L365.5,72.8z"/>
				<g id="g4598">
					<g id="path4600" class="st13">
						<line class="st12" x1="377" y1="91.3" x2="375.8" y2="156.8"/>
						<line class="st14" x1="377" y1="91.3" x2="375.8" y2="156.8"/>
					</g>
					<g id="path4602" class="st13">
						<line class="st12" x1="387" y1="95.3" x2="385.8" y2="160.8"/>
						<line class="st14" x1="387" y1="95.3" x2="385.8" y2="160.8"/>
					</g>
					<g id="path4604" class="st13">
						<line class="st12" x1="399" y1="99.3" x2="397.8" y2="164.8"/>
						<line class="st14" x1="399" y1="99.3" x2="397.8" y2="164.8"/>
					</g>
					<g id="path4606" class="st13">
						<line class="st12" x1="411" y1="103.3" x2="409.8" y2="168.8"/>
						<line class="st14" x1="411" y1="103.3" x2="409.8" y2="168.8"/>
					</g>
					<g id="path4608" class="st13">
						<line class="st12" x1="423" y1="105.3" x2="421.8" y2="170.8"/>
						<line class="st14" x1="423" y1="105.3" x2="421.8" y2="170.8"/>
					</g>
					<g id="path4611" class="st13">
						<line class="st12" x1="435" y1="107.3" x2="433.8" y2="172.8"/>
						<line class="st14" x1="435" y1="107.3" x2="433.8" y2="172.8"/>
					</g>
					<g id="path4613" class="st13">
						<line class="st12" x1="447" y1="109.3" x2="445.8" y2="174.8"/>
						<line class="st14" x1="447" y1="109.3" x2="445.8" y2="174.8"/>
					</g>
					<g id="path4615" class="st13">
						<line class="st12" x1="459" y1="111.3" x2="457.8" y2="176.8"/>
						<line class="st14" x1="459" y1="111.3" x2="457.8" y2="176.8"/>
					</g>
					<g id="path4617" class="st13">
						<line class="st12" x1="471" y1="113.3" x2="469.8" y2="178.8"/>
						<line class="st14" x1="471" y1="113.3" x2="469.8" y2="178.8"/>
					</g>
					<g id="path4619" class="st13">
						<line class="st12" x1="483" y1="113.3" x2="481.8" y2="178.8"/>
						<line class="st14" x1="483" y1="113.3" x2="481.8" y2="178.8"/>
					</g>
					<g id="path4621" class="st13">
						<line class="st12" x1="495" y1="113.3" x2="493.8" y2="178.8"/>
						<line class="st14" x1="495" y1="113.3" x2="493.8" y2="178.8"/>
					</g>
					<g id="path4623" class="st13">
						<line class="st12" x1="507" y1="113.3" x2="505.8" y2="178.8"/>
						<line class="st14" x1="507" y1="113.3" x2="505.8" y2="178.8"/>
					</g>
					<g id="path4625" class="st13">
						<line class="st12" x1="519" y1="113.3" x2="517.8" y2="178.8"/>
						<line class="st14" x1="519" y1="113.3" x2="517.8" y2="178.8"/>
					</g>
					<g id="path4627" class="st13">
						<line class="st12" x1="531" y1="113.3" x2="529.8" y2="178.8"/>
						<line class="st14" x1="531" y1="113.3" x2="529.8" y2="178.8"/>
					</g>
					<g id="path4629" class="st13">
						<line class="st12" x1="543" y1="113.3" x2="541.8" y2="178.8"/>
						<line class="st14" x1="543" y1="113.3" x2="541.8" y2="178.8"/>
					</g>
					<g id="path4631" class="st13">
						<line class="st12" x1="555" y1="111.3" x2="553.8" y2="176.8"/>
						<line class="st14" x1="555" y1="111.3" x2="553.8" y2="176.8"/>
					</g>
					<g id="path4633" class="st13">
						<line class="st12" x1="567" y1="111.3" x2="565.8" y2="176.8"/>
						<line class="st14" x1="567" y1="111.3" x2="565.8" y2="176.8"/>
					</g>
					<g id="path4635" class="st13">
						<line class="st12" x1="579" y1="109.3" x2="577.8" y2="174.8"/>
						<line class="st14" x1="579" y1="109.3" x2="577.8" y2="174.8"/>
					</g>
					<g id="path4637" class="st13">
						<line class="st12" x1="591" y1="109.3" x2="589.8" y2="174.8"/>
						<line class="st14" x1="591" y1="109.3" x2="589.8" y2="174.8"/>
					</g>
					<g id="path4639" class="st13">
						<line class="st12" x1="603" y1="107.3" x2="601.8" y2="172.8"/>
						<line class="st14" x1="603" y1="107.3" x2="601.8" y2="172.8"/>
					</g>
					<g id="path4641" class="st13">
						<line class="st12" x1="615" y1="107.3" x2="613.8" y2="172.8"/>
						<line class="st14" x1="615" y1="107.3" x2="613.8" y2="172.8"/>
					</g>
					<g id="path4643" class="st13">
						<line class="st12" x1="627" y1="105.3" x2="625.8" y2="170.8"/>
						<line class="st14" x1="627" y1="105.3" x2="625.8" y2="170.8"/>
					</g>
					<g id="path4645" class="st13">
						<line class="st12" x1="639" y1="103.3" x2="637.8" y2="168.8"/>
						<line class="st14" x1="639" y1="103.3" x2="637.8" y2="168.8"/>
					</g>
					<g id="path4647" class="st13">
						<line class="st12" x1="651" y1="101.3" x2="649.8" y2="166.8"/>
						<line class="st14" x1="651" y1="101.3" x2="649.8" y2="166.8"/>
					</g>
					<g id="path4649" class="st13">
						<line class="st12" x1="663" y1="99.3" x2="661.8" y2="164.8"/>
						<line class="st14" x1="663" y1="99.3" x2="661.8" y2="164.8"/>
					</g>
					<g id="path4651" class="st13">
						<line class="st12" x1="675" y1="95.3" x2="673.8" y2="160.8"/>
						<line class="st14" x1="675" y1="95.3" x2="673.8" y2="160.8"/>
					</g>
					<g id="path4653" class="st13">
						<line class="st12" x1="687" y1="91.3" x2="685.8" y2="156.8"/>
						<line class="st14" x1="687" y1="91.3" x2="685.8" y2="156.8"/>
					</g>
				</g>
			</g>
			<g id="g4560">
				<path id="path2830" class="st15" d="M690.9,72.2c0,13.6-72,24.6-160.7,24.6s-160.7-11-160.7-24.6s72-24.6,160.7-24.6
					S690.9,58.6,690.9,72.2z"/>
				<path id="path2832" sodipodi:nodetypes="ccccc" class="st5" d="M367,70.4l-1.2,88.8c44,33.2,284.3,37.9,328.7-3.6l-1.2-84
					C655.3,98.3,418.2,110.7,367,70.4L367,70.4z"/>
				<g id="g3870">
					<g id="path3806" class="st13">
						<line class="st16" x1="378.5" y1="89" x2="377.3" y2="154.4"/>
						<line class="st14" x1="378.5" y1="89" x2="377.3" y2="154.4"/>
					</g>
					<g id="path3818" class="st13">
						<line class="st16" x1="388.5" y1="93" x2="387.3" y2="158.4"/>
						<line class="st14" x1="388.5" y1="93" x2="387.3" y2="158.4"/>
					</g>
					<g id="path3820" class="st13">
						<line class="st16" x1="400.5" y1="97" x2="399.3" y2="162.4"/>
						<line class="st14" x1="400.5" y1="97" x2="399.3" y2="162.4"/>
					</g>
					<g id="path3822" class="st13">
						<line class="st16" x1="412.5" y1="101" x2="411.3" y2="166.4"/>
						<line class="st14" x1="412.5" y1="101" x2="411.3" y2="166.4"/>
					</g>
					<g id="path3824" class="st13">
						<line class="st16" x1="424.5" y1="103" x2="423.3" y2="168.4"/>
						<line class="st14" x1="424.5" y1="103" x2="423.3" y2="168.4"/>
					</g>
					<g id="path3826" class="st13">
						<line class="st16" x1="436.5" y1="105" x2="435.3" y2="170.4"/>
						<line class="st14" x1="436.5" y1="105" x2="435.3" y2="170.4"/>
					</g>
					<g id="path3828" class="st13">
						<line class="st16" x1="448.5" y1="107" x2="447.3" y2="172.4"/>
						<line class="st14" x1="448.5" y1="107" x2="447.3" y2="172.4"/>
					</g>
					<g id="path3830" class="st13">
						<line class="st16" x1="460.5" y1="109" x2="459.3" y2="174.4"/>
						<line class="st14" x1="460.5" y1="109" x2="459.3" y2="174.4"/>
					</g>
					<g id="path3832" class="st13">
						<line class="st16" x1="472.5" y1="111" x2="471.3" y2="176.4"/>
						<line class="st14" x1="472.5" y1="111" x2="471.3" y2="176.4"/>
					</g>
					<g id="path3834" class="st13">
						<line class="st16" x1="484.5" y1="111" x2="483.3" y2="176.4"/>
						<line class="st14" x1="484.5" y1="111" x2="483.3" y2="176.4"/>
					</g>
					<g id="path3836" class="st13">
						<line class="st16" x1="496.5" y1="111" x2="495.3" y2="176.4"/>
						<line class="st14" x1="496.5" y1="111" x2="495.3" y2="176.4"/>
					</g>
					<g id="path3838" class="st13">
						<line class="st16" x1="508.5" y1="111" x2="507.3" y2="176.4"/>
						<line class="st14" x1="508.5" y1="111" x2="507.3" y2="176.4"/>
					</g>
					<g id="path3840" class="st13">
						<line class="st16" x1="520.5" y1="111" x2="519.3" y2="176.4"/>
						<line class="st14" x1="520.5" y1="111" x2="519.3" y2="176.4"/>
					</g>
					<g id="path3842" class="st13">
						<line class="st16" x1="532.5" y1="111" x2="531.3" y2="176.4"/>
						<line class="st14" x1="532.5" y1="111" x2="531.3" y2="176.4"/>
					</g>
					<g id="path3844" class="st13">
						<line class="st16" x1="544.5" y1="111" x2="543.3" y2="176.4"/>
						<line class="st14" x1="544.5" y1="111" x2="543.3" y2="176.4"/>
					</g>
					<g id="path3846" class="st13">
						<line class="st16" x1="556.5" y1="109" x2="555.3" y2="174.4"/>
						<line class="st14" x1="556.5" y1="109" x2="555.3" y2="174.4"/>
					</g>
					<g id="path3848" class="st13">
						<line class="st16" x1="568.5" y1="109" x2="567.3" y2="174.4"/>
						<line class="st14" x1="568.5" y1="109" x2="567.3" y2="174.4"/>
					</g>
					<g id="path3850" class="st13">
						<line class="st16" x1="580.5" y1="107" x2="579.3" y2="172.4"/>
						<line class="st14" x1="580.5" y1="107" x2="579.3" y2="172.4"/>
					</g>
					<g id="path3852" class="st13">
						<line class="st16" x1="592.5" y1="107" x2="591.3" y2="172.4"/>
						<line class="st14" x1="592.5" y1="107" x2="591.3" y2="172.4"/>
					</g>
					<g id="path3854" class="st13">
						<line class="st16" x1="604.5" y1="105" x2="603.3" y2="170.4"/>
						<line class="st14" x1="604.5" y1="105" x2="603.3" y2="170.4"/>
					</g>
					<g id="path3856" class="st13">
						<line class="st16" x1="616.5" y1="105" x2="615.3" y2="170.4"/>
						<line class="st14" x1="616.5" y1="105" x2="615.3" y2="170.4"/>
					</g>
					<g id="path3858" class="st13">
						<line class="st16" x1="628.5" y1="103" x2="627.3" y2="168.4"/>
						<line class="st14" x1="628.5" y1="103" x2="627.3" y2="168.4"/>
					</g>
					<g id="path3860" class="st13">
						<line class="st16" x1="640.5" y1="101" x2="639.3" y2="166.4"/>
						<line class="st14" x1="640.5" y1="101" x2="639.3" y2="166.4"/>
					</g>
					<g id="path3862" class="st13">
						<line class="st16" x1="652.5" y1="99" x2="651.3" y2="164.4"/>
						<line class="st14" x1="652.5" y1="99" x2="651.3" y2="164.4"/>
					</g>
					<g id="path3864" class="st13">
						<line class="st16" x1="664.5" y1="97" x2="663.3" y2="162.4"/>
						<line class="st14" x1="664.5" y1="97" x2="663.3" y2="162.4"/>
					</g>
					<g id="path3866" class="st13">
						<line class="st16" x1="676.5" y1="93" x2="675.3" y2="158.4"/>
						<line class="st14" x1="676.5" y1="93" x2="675.3" y2="158.4"/>
					</g>
					<g id="path3868" class="st13">
						<line class="st16" x1="688.5" y1="89" x2="687.3" y2="154.4"/>
						<line class="st14" x1="688.5" y1="89" x2="687.3" y2="154.4"/>
					</g>
				</g>
			</g>
		</g>
		<g id="path3944" class="st17">
			
				<linearGradient id="SVGID_5_" gradientUnits="userSpaceOnUse" x1="697.8254" y1="-320.2005" x2="834.2892" y2="-320.2005" gradientTransform="matrix(1.7716 0 0 -1.7716 -723.2937 -63.6069)">
				<stop  offset="0" style="stop-color:#FFFFFF"/>
				<stop  offset="1" style="stop-color:#FFFFFF;stop-opacity:0"/>
			</linearGradient>
			<polygon class="st18" points="512.9,505.9 754.7,510.4 754.7,501.4 524.2,496.9 			"/>
		</g>
		<g id="g3455" transform="translate(58.64917,-43.053868)">
			<g id="g3457">
				<g id="g3459" transform="matrix(-1.771561,0,0,1.771561,970.71293,-416.91532)">
					
						<radialGradient id="path3461_1_" cx="-50.9127" cy="154.6245" r="11.4654" gradientTransform="matrix(-1.7716 0 0 -1.5415 178.2883 659.7186)" gradientUnits="userSpaceOnUse">
						<stop  offset="0" style="stop-color:#444300"/>
						<stop  offset="1" style="stop-color:#44AA00;stop-opacity:0.7597"/>
					</radialGradient>
					<path id="path3461" sodipodi:nodetypes="cccc" class="st19" d="M257.5,423c4.6-3.7,1.3-8.7,14.7-11.1c3.7,1.2,6,4.5,7.2,9.3
						C272.6,433.2,265.4,434.2,257.5,423z"/>
					
						<radialGradient id="path3463_1_" cx="-39.0042" cy="159.5688" r="11.4653" gradientTransform="matrix(-2.0538 0 0 -1.4941 212.4437 658.9103)" gradientUnits="userSpaceOnUse">
						<stop  offset="0" style="stop-color:#444300"/>
						<stop  offset="1" style="stop-color:#44AA00;stop-opacity:0.7597"/>
					</radialGradient>
					<path id="path3463" sodipodi:nodetypes="cccc" class="st20" d="M279.8,422c5.4-3.6,1.5-8.5,17.1-10.7c4.3,1.2,7,4.3,8.3,9
						C297.4,432,288.9,433,279.8,422z"/>
					
						<radialGradient id="path3465_1_" cx="-71.3971" cy="151.1967" r="11.4654" gradientTransform="matrix(-1.9154 0.5435 -0.3389 -1.1944 245.2658 629.4095)" gradientUnits="userSpaceOnUse">
						<stop  offset="0" style="stop-color:#444300"/>
						<stop  offset="1" style="stop-color:#44AA00;stop-opacity:0.7597"/>
					</radialGradient>
					<path id="path3465" sodipodi:nodetypes="cccc" class="st21" d="M319.3,414.6c4.2-4.3-0.5-7.2,13.5-13.1c4.3-0.2,7.5,1.6,9.8,5
						C337.9,417.9,330.2,420.9,319.3,414.6z"/>
					
						<radialGradient id="path3467_1_" cx="-26.2289" cy="133.8532" r="11.4654" gradientTransform="matrix(-2.477 0 0 -1.7782 254.07 652.8918)" gradientUnits="userSpaceOnUse">
						<stop  offset="0" style="stop-color:#444300"/>
						<stop  offset="1" style="stop-color:#44AA00;stop-opacity:0.7597"/>
					</radialGradient>
					<path id="path3467" sodipodi:nodetypes="cccc" class="st22" d="M303.7,416.7c6.5-4.3,1.8-10.1,20.6-12.8
						c5.2,1.4,8.4,5.1,10,10.7C324.9,428.5,314.7,429.7,303.7,416.7L303.7,416.7z"/>
				</g>
			</g>
			<g id="g3469" transform="matrix(-1.771561,0,0,1.771561,970.71293,-416.91532)">
				<g id="g3471">
					
						<linearGradient id="path3473_1_" gradientUnits="userSpaceOnUse" x1="-50.9694" y1="123.5986" x2="-4.7446" y2="123.5986" gradientTransform="matrix(-1.7716 0 0 -1.7716 178.2883 659.4026)">
						<stop  offset="0" style="stop-color:#800000"/>
						<stop  offset="0.5" style="stop-color:#800000;stop-opacity:0.7907"/>
						<stop  offset="1" style="stop-color:#805122"/>
					</linearGradient>
					<path id="path3473" sodipodi:nodetypes="cccccc" class="st23" d="M270.7,432.7c-3,9.9-3.3,19.6,12,28.9
						c11.4,2.3,14.7,0.5,19.7-0.4c7.5-4.2,10.5-14.8,12-23.8c-4-9.4-9.7-18.4-21.8-19.1C292.3,430,279,434.8,270.7,432.7
						L270.7,432.7z"/>
					
						<linearGradient id="path3475_1_" gradientUnits="userSpaceOnUse" x1="-47.5664" y1="135.8748" x2="-25.2993" y2="135.8748" gradientTransform="matrix(-1.8627 0 0 -1.7228 181.4385 659.802)">
						<stop  offset="0" style="stop-color:#D4AA00"/>
						<stop  offset="1" style="stop-color:#D4AA00;stop-opacity:0.5349"/>
					</linearGradient>
					<path id="path3475" sodipodi:nodetypes="cccc" class="st24" d="M270.6,432.7c1.2-1.2,18.4-13.2,22.1-14.7
						c0.7,3.7,0.2,9.1-3.9,11.1C284.3,431.9,275,434.9,270.6,432.7L270.6,432.7z"/>
				</g>
				<g id="g3477">
					
						<linearGradient id="path3479_1_" gradientUnits="userSpaceOnUse" x1="-80.9776" y1="122.3862" x2="-48.6053" y2="122.3862" gradientTransform="matrix(-1.7716 0 0 -1.7716 178.2883 659.4026)">
						<stop  offset="0" style="stop-color:#800000"/>
						<stop  offset="0.5" style="stop-color:#800000;stop-opacity:0.7907"/>
						<stop  offset="1" style="stop-color:#805122"/>
					</linearGradient>
					<path id="path3479" sodipodi:nodetypes="cccc" class="st25" d="M321.7,461.1c8.9-3.1,32.8-12.4,25.6-37.6
						c5.9,6.7,8.6,19.2,5.5,26.2C343.2,461.9,332.5,462.7,321.7,461.1L321.7,461.1z"/>
					
						<linearGradient id="path3481_1_" gradientUnits="userSpaceOnUse" x1="-74.3495" y1="123.4212" x2="-34.477" y2="123.4212" gradientTransform="matrix(-1.7716 0 0 -1.7716 178.2883 659.4026)">
						<stop  offset="0" style="stop-color:#F7C416;stop-opacity:0.8992"/>
						<stop  offset="1" style="stop-color:#E9F01A;stop-opacity:0.8527"/>
					</linearGradient>
					<path id="path3481" sodipodi:nodetypes="cccccc" class="st26" d="M321.5,461.1c5.6-6,17.2-6.7,23.4-14.4
						c5.2-7.4,3.9-14.7,3.5-22.1c-7-4.3-13.6-3.2-21.7-5c-6.2,2-11.7,8.5-15.1,15.7C308.2,449.3,319,452.8,321.5,461.1L321.5,461.1z
						"/>
					
						<linearGradient id="path3483_1_" gradientUnits="userSpaceOnUse" x1="-74.9832" y1="124.0466" x2="-37.381" y2="124.0466" gradientTransform="matrix(-1.7716 0 0 -1.7716 178.2883 659.4026)">
						<stop  offset="0" style="stop-color:#STROKE"/>
						<stop  offset="1" style="stop-color:#STROKE;stop-opacity:0"/>
					</linearGradient>
					<path id="path3483" sodipodi:nodetypes="cccccc" class="st27" d="M322,458.9c7.9-2.2,15.9-7.4,23.8-14.2
						c3.1-6.7,2.7-13.4,1.7-20.1c-6.8-2.8-13.6-3.6-20.3-4.2c-6.6,2.8-11.4,7-13.3,13.3C309.1,440.3,311.9,450.7,322,458.9
						L322,458.9z"/>
				</g>
			</g>
		</g>
		<g id="g3851" transform="matrix(-1.771561,0,0,1.771561,970.71293,-416.91532)">
			<g id="g3823">
				
					<radialGradient id="path2991_1_" cx="-28.4701" cy="320.5061" r="88.5542" gradientTransform="matrix(-1.7716 0 0 -0.7119 119.6391 634.6475)" gradientUnits="userSpaceOnUse">
					<stop  offset="0" style="stop-color:#570000"/>
					<stop  offset="1" style="stop-color:#8D0000;stop-opacity:0.7209"/>
				</radialGradient>
				
					<radialGradient id="path2991_2_" cx="-28.4701" cy="320.5061" r="88.5542" gradientTransform="matrix(-1.7716 0 0 -0.7119 119.6391 634.6475)" gradientUnits="userSpaceOnUse">
					<stop  offset="0" style="stop-color:#FC9027"/>
					<stop  offset="1" style="stop-color:#FCBA27;stop-opacity:0.8682"/>
				</radialGradient>
				<path id="path2991" sodipodi:nodetypes="cccccccccccc" class="st28" d="M105.4,378.1c-15.6,8-27.1,23.4-20.4,34.4
					c6.5,8.4,11.6,17.7,26.8,20.4c7.7,5.5,21.3,7.2,37,7.7c6.4-1,12.8-5.4,19.1-10.4c13.6,3.1,27.2,6.3,40.8,5.3
					c11.1-0.5,22.1-1,33.2-6.4c5.8-5,12.3-9.1,15.3-17.9c-1-9.4-6.6-13.2-11.5-17.9c-4.6-6-7.8-11.9-35.7-17.9
					c-18.2,0.2-36.3-1.2-54.5-1.9C138.9,370.9,121.9,372.8,105.4,378.1L105.4,378.1z"/>
				<g id="path3785" sodipodi:nodetypes="ccccc" class="st29">
					
						<linearGradient id="SVGID_6_" gradientUnits="userSpaceOnUse" x1="-18.4869" y1="121.1462" x2="27.3645" y2="121.1462" gradientTransform="matrix(-1.7716 0 0 -1.7716 119.6391 616.3487)">
						<stop  offset="0" style="stop-color:#FFFFFF"/>
						<stop  offset="1" style="stop-color:#FFFFFF;stop-opacity:0.155"/>
					</linearGradient>
					<path class="st30" d="M191.5,382.1c-4.8,3.3-32.4,15.9-39.1,24.1c6.3,11.3,44.4,17.6,45.9,14.3c-9.5-8.2-40.3-10-35-16.2
						C176.3,396.9,193,386.1,191.5,382.1z"/>
				</g>
				<g id="path3807" sodipodi:nodetypes="ccccc" class="st29">
					
						<linearGradient id="SVGID_7_" gradientUnits="userSpaceOnUse" x1="280.4091" y1="-89.7201" x2="326.2606" y2="-89.7201" gradientTransform="matrix(0.9895 -0.7728 0.7515 1.0175 16.001 700.5495)">
						<stop  offset="0" style="stop-color:#FFFFFF"/>
						<stop  offset="1" style="stop-color:#FFFFFF;stop-opacity:0.155"/>
					</linearGradient>
					<path class="st31" d="M212.5,420.9c1.3-4,11.4-23.3,11.6-30.9c-8.3-3.7-32.3,9.2-31.7,11.8c8.8,0.6,26.7-11.8,26.4-6
						C214.8,405.7,210,419.2,212.5,420.9z"/>
				</g>
				<g id="path3811" sodipodi:nodetypes="ccccc" class="st29">
					
						<linearGradient id="SVGID_8_" gradientUnits="userSpaceOnUse" x1="140.0249" y1="-350.3198" x2="185.8763" y2="-350.3198" gradientTransform="matrix(1.6688 0.8581 -0.1002 0.8999 -54.5089 616.1307)">
						<stop  offset="0" style="stop-color:#FFFFFF"/>
						<stop  offset="1" style="stop-color:#FFFFFF;stop-opacity:0.155"/>
					</linearGradient>
					<path class="st32" d="M176.3,412.1c4.7,0.6,31.5,7.6,38.2,6.7c-5.3-8.8-40.8-30.5-42.4-29.5c8.5,8.8,37.3,24.6,32,25.1
						C191.5,411.9,175.1,409.3,176.3,412.1z"/>
				</g>
				<g id="path3815" sodipodi:nodetypes="ccccc" class="st29">
					
						<linearGradient id="SVGID_9_" gradientUnits="userSpaceOnUse" x1="177.7913" y1="8.5804" x2="223.6428" y2="8.5804" gradientTransform="matrix(1.2206 -2.1512 0.8523 -0.2015 -68.6553 763.2461)">
						<stop  offset="0" style="stop-color:#FFFFFF"/>
						<stop  offset="1" style="stop-color:#FFFFFF;stop-opacity:0.155"/>
					</linearGradient>
					<path class="st33" d="M138.2,424.3c1.7-5.4,14.7-37.6,15.4-44.7c-9.8,8.9-39.1,55.9-38.5,57.3c10.5-12.5,32.6-50,31.9-44.3
						C141.5,407.5,135.2,426.6,138.2,424.3z"/>
				</g>
				<g id="path3819" sodipodi:nodetypes="ccccc" class="st29">
					
						<linearGradient id="SVGID_10_" gradientUnits="userSpaceOnUse" x1="400.3741" y1="-310.1642" x2="446.2256" y2="-310.1642" gradientTransform="matrix(1.2206 -0.7897 0.8523 -7.395174e-002 -96.8426 680.3925)">
						<stop  offset="0" style="stop-color:#FFFFFF"/>
						<stop  offset="1" style="stop-color:#FFFFFF;stop-opacity:0.155"/>
					</linearGradient>
					<path class="st34" d="M110,403.8c1.7-2,14.7-13.8,15.4-16.4c-9.8,3.3-39.1,20.5-38.5,21c10.5-4.6,32.6-18.4,31.9-16.3
						C113.4,397.6,107,404.6,110,403.8z"/>
				</g>
			</g>
			
				<radialGradient id="path3831_1_" cx="-27.6437" cy="399.8182" r="89.511" gradientTransform="matrix(-1.7716 0 0 -0.5595 119.6391 652.7)" gradientUnits="userSpaceOnUse">
				<stop  offset="0" style="stop-color:#FFAC00"/>
				<stop  offset="1" style="stop-color:#FFCC00;stop-opacity:0.8605"/>
			</radialGradient>
			<path id="path3831" sodipodi:nodetypes="cccccccccc" class="st35" d="M81.7,401.3c-1.7-1-3.8,19,0,30.1
				c3.7,7.1,9.8,9.6,15.4,12.8c5,5.6,11.4,7.1,18.4,6.8c18.6,11.4,34,3.8,49.6-2.3c37,8.9,85.2,3.2,91.3-5.3l1.1-32.7
				c-3.9,22.9-39.7,25.5-90.6,18.4c-18.1,9.9-36.7,14.4-56.8,3.4C100.8,434.8,83.2,406.4,81.7,401.3L81.7,401.3z"/>
		</g>
		<g id="g4734" transform="matrix(-1.771561,0,0,1.771561,970.71293,-416.91532)">
			<path id="path4203" sodipodi:nodetypes="ccccc" class="st36" d="M63.7,460.6l14.8,5.8l18.5-22.1l-11.6-8.4L63.7,460.6L63.7,460.6
				z"/>
			<path id="path4205" sodipodi:nodetypes="cccccc" class="st37" d="M88.5,436.8l65.4-80.1c13.2-2.8,10.5,7.6,10,17.9L103.2,441
				c-2.9-0.7-4.9,0.6-6.3,3.2L88.5,436.8z"/>
			
				<linearGradient id="path4207_1_" gradientUnits="userSpaceOnUse" x1="-5.3616" y1="132.9673" x2="31.0045" y2="132.9673" gradientTransform="matrix(-1.7716 0 0 -1.7716 119.6391 616.3487)">
				<stop  offset="0" style="stop-color:#800000"/>
				<stop  offset="1" style="stop-color:#800000;stop-opacity:0.5969"/>
			</linearGradient>
			<path id="path4207" sodipodi:nodetypes="cccccc" class="st38" d="M129.1,388.5c2.9-2.7,5.6-4.7,7.9-4.2
				c2.5,3.5,0.7,14.3-0.5,21.4l28.8-31.8c1-15.7-3.3-20.2-10.8-17.5L129.1,388.5z"/>
		</g>
		<g id="g3875" transform="matrix(-1.771561,0,0,1.771561,970.71293,-416.91532)">
			
				<linearGradient id="path3861_1_" gradientUnits="userSpaceOnUse" x1="30.9813" y1="108.0697" x2="44.9861" y2="108.0697" gradientTransform="matrix(-1.7716 0 0 -1.7716 119.6391 616.3487)">
				<stop  offset="0" style="stop-color:#1EAA00"/>
				<stop  offset="1" style="stop-color:#44AA00;stop-opacity:0.7287"/>
			</linearGradient>
			<path id="path3861" sodipodi:nodetypes="cccc" class="st39" d="M74.7,414.4c-8.4,1.1-10.3,6.4-9.9,13.2c3.6,10,7.9,6.8,12,7.8
				C80,432.1,79.2,418.3,74.7,414.4L74.7,414.4z"/>
			
				<linearGradient id="path3871_1_" gradientUnits="userSpaceOnUse" x1="163.1398" y1="-182.1542" x2="177.1447" y2="-182.1542" gradientTransform="matrix(-1.163 -1.3363 -1.3363 1.163 8.1755 869.5444)">
				<stop  offset="0" style="stop-color:#1EAA00"/>
				<stop  offset="1" style="stop-color:#44AA00;stop-opacity:0.7287"/>
			</linearGradient>
			<path id="path3871" sodipodi:nodetypes="cccc" class="st40" d="M60.5,454.1c-4.6-7-1.9-12,3.5-16.1c9.9-3.9,10.3,1.6,13.8,4
				C77.4,446.5,66.4,454.9,60.5,454.1L60.5,454.1z"/>
		</g>
		<g id="g3439">
			<g id="g3412">
				<g id="g3901" transform="matrix(-1.771561,0,0,1.771561,970.71293,-416.91532)">
					
						<radialGradient id="path3879_1_" cx="-84.0186" cy="130.3217" r="11.4654" gradientTransform="matrix(-1.7716 0 0 -1.5415 119.6391 622.2566)" gradientUnits="userSpaceOnUse">
						<stop  offset="0" style="stop-color:#444300"/>
						<stop  offset="1" style="stop-color:#44AA00;stop-opacity:0.7597"/>
					</radialGradient>
					<path id="path3879" sodipodi:nodetypes="cccc" class="st41" d="M257.5,423c4.6-3.7,1.3-8.7,14.7-11.1c3.7,1.2,6,4.5,7.2,9.3
						C272.6,433.2,265.4,434.2,257.5,423z"/>
					
						<radialGradient id="path3889_1_" cx="-72.1101" cy="135.266" r="11.4653" gradientTransform="matrix(-2.0538 0 0 -1.4941 144.4522 622.5991)" gradientUnits="userSpaceOnUse">
						<stop  offset="0" style="stop-color:#444300"/>
						<stop  offset="1" style="stop-color:#44AA00;stop-opacity:0.7597"/>
					</radialGradient>
					<path id="path3889" sodipodi:nodetypes="cccc" class="st42" d="M279.8,422c5.4-3.6,1.5-8.5,17.1-10.7c4.3,1.2,7,4.3,8.3,9
						C297.4,432,288.9,433,279.8,422z"/>
					
						<radialGradient id="path3897_1_" cx="-104.503" cy="126.8939" r="11.4654" gradientTransform="matrix(-1.9154 0.5435 -0.3389 -1.1944 173.6173 618.3746)" gradientUnits="userSpaceOnUse">
						<stop  offset="0" style="stop-color:#444300"/>
						<stop  offset="1" style="stop-color:#44AA00;stop-opacity:0.7597"/>
					</radialGradient>
					<path id="path3897" sodipodi:nodetypes="cccc" class="st43" d="M319.3,414.6c4.2-4.3-0.5-7.2,13.5-13.1c4.3-0.2,7.5,1.6,9.8,5
						C337.9,417.9,330.2,420.9,319.3,414.6z"/>
					
						<radialGradient id="path3893_1_" cx="-59.3348" cy="109.5505" r="11.4654" gradientTransform="matrix(-2.477 0 0 -1.7782 172.065 609.6755)" gradientUnits="userSpaceOnUse">
						<stop  offset="0" style="stop-color:#444300"/>
						<stop  offset="1" style="stop-color:#44AA00;stop-opacity:0.7597"/>
					</radialGradient>
					<path id="path3893" sodipodi:nodetypes="cccc" class="st44" d="M303.7,416.7c6.5-4.3,1.8-10.1,20.6-12.8
						c5.2,1.4,8.4,5.1,10,10.7C324.9,428.5,314.7,429.7,303.7,416.7L303.7,416.7z"/>
				</g>
			</g>
			<g id="g4679" transform="matrix(-1.771561,0,0,1.771561,970.71293,-416.91532)">
				<g id="g4620">
					
						<linearGradient id="path4598_1_" gradientUnits="userSpaceOnUse" x1="-84.0753" y1="99.2959" x2="-37.8505" y2="99.2959" gradientTransform="matrix(-1.7716 0 0 -1.7716 119.6391 616.3487)">
						<stop  offset="0" style="stop-color:#800000"/>
						<stop  offset="0.5" style="stop-color:#800000;stop-opacity:0.7907"/>
						<stop  offset="1" style="stop-color:#805122"/>
					</linearGradient>
					<path id="path4598" sodipodi:nodetypes="cccccc" class="st45" d="M270.7,432.7c-3,9.9-3.3,19.6,12,28.9
						c11.4,2.3,14.7,0.5,19.7-0.4c7.5-4.2,10.5-14.8,12-23.8c-4-9.4-9.7-18.4-21.8-19.1C292.3,430,279,434.8,270.7,432.7
						L270.7,432.7z"/>
					
						<linearGradient id="path4610_1_" gradientUnits="userSpaceOnUse" x1="-80.6723" y1="111.5721" x2="-58.4052" y2="111.5721" gradientTransform="matrix(-1.8627 0 0 -1.7228 119.7734 617.9335)">
						<stop  offset="0" style="stop-color:#D4AA00"/>
						<stop  offset="1" style="stop-color:#D4AA00;stop-opacity:0.5349"/>
					</linearGradient>
					<path id="path4610" sodipodi:nodetypes="cccc" class="st46" d="M270.6,432.7c1.2-1.2,18.4-13.2,22.1-14.7
						c0.7,3.7,0.2,9.1-3.9,11.1C284.3,431.9,275,434.9,270.6,432.7L270.6,432.7z"/>
				</g>
				<g id="g4674">
					
						<linearGradient id="path4634_1_" gradientUnits="userSpaceOnUse" x1="-114.0835" y1="98.0835" x2="-81.7112" y2="98.0835" gradientTransform="matrix(-1.7716 0 0 -1.7716 119.6391 616.3487)">
						<stop  offset="0" style="stop-color:#800000"/>
						<stop  offset="0.5" style="stop-color:#800000;stop-opacity:0.7907"/>
						<stop  offset="1" style="stop-color:#805122"/>
					</linearGradient>
					<path id="path4634" sodipodi:nodetypes="cccc" class="st47" d="M321.7,461.1c8.9-3.1,32.8-12.4,25.6-37.6
						c5.9,6.7,8.6,19.2,5.5,26.2C343.2,461.9,332.5,462.7,321.7,461.1L321.7,461.1z"/>
					
						<linearGradient id="path4624_1_" gradientUnits="userSpaceOnUse" x1="-107.4554" y1="99.1184" x2="-67.5829" y2="99.1184" gradientTransform="matrix(-1.7716 0 0 -1.7716 119.6391 616.3487)">
						<stop  offset="0" style="stop-color:#F7C416;stop-opacity:0.8992"/>
						<stop  offset="1" style="stop-color:#E9F01A;stop-opacity:0.8527"/>
					</linearGradient>
					<path id="path4624" sodipodi:nodetypes="cccccc" class="st48" d="M321.5,461.1c5.6-6,17.2-6.7,23.4-14.4
						c5.2-7.4,3.9-14.7,3.5-22.1c-7-4.3-13.6-3.2-21.7-5c-6.2,2-11.7,8.5-15.1,15.7C308.2,449.3,319,452.8,321.5,461.1L321.5,461.1z
						"/>
					
						<linearGradient id="path4656_1_" gradientUnits="userSpaceOnUse" x1="-108.0891" y1="99.7438" x2="-70.4869" y2="99.7438" gradientTransform="matrix(-1.7716 0 0 -1.7716 119.6391 616.3487)">
						<stop  offset="0" style="stop-color:#STROKE"/>
						<stop  offset="1" style="stop-color:#STROKE;stop-opacity:0"/>
					</linearGradient>
					<path id="path4656" sodipodi:nodetypes="cccccc" class="st49" d="M322,458.9c7.9-2.2,15.9-7.4,23.8-14.2
						c3.1-6.7,2.7-13.4,1.7-20.1c-6.8-2.8-13.6-3.6-20.3-4.2c-6.6,2.8-11.4,7-13.3,13.3C309.1,440.3,311.9,450.7,322,458.9
						L322,458.9z"/>
				</g>
			</g>
		</g>
		<g id="g4335" transform="translate(-664.57335,166.7475)">
			
				<linearGradient id="path4268_1_" gradientUnits="userSpaceOnUse" x1="1859.5842" y1="-124.5616" x2="1906.109" y2="-124.5616" gradientTransform="matrix(1 0 0 -1 -664.5734 32.5281)">
				<stop  offset="0" style="stop-color:#F1AA00"/>
				<stop  offset="1" style="stop-color:#D4AA00;stop-opacity:0.8372"/>
			</linearGradient>
			<path id="path4268" sodipodi:nodetypes="ccccc" class="st50" d="M1204.3,181.6c11.8-6,23.3-10.2,37.2-27.1
				c-5.1-14.1-14.7-21.4-28.8-22c-9.3,12.1-17.4,24.6-17.8,38.9L1204.3,181.6L1204.3,181.6z"/>
			
				<linearGradient id="path4278_1_" gradientUnits="userSpaceOnUse" x1="1832.0934" y1="-123.853" x2="1869.9963" y2="-123.853" gradientTransform="matrix(1 0 0 -1 -664.5734 32.5281)">
				<stop  offset="0" style="stop-color:#F9AA00"/>
				<stop  offset="1" style="stop-color:#D4AA00;stop-opacity:0.7442"/>
			</linearGradient>
			
				<path id="path4278" sodipodi:nodetypes="ccccc" inkscape:transform-center-y="-14.247162" inkscape:transform-center-x="-8.401432" class="st51" d="
				M1203,179.2c1.8-13.1,4.8-24.9-1.1-46c-14.5-3.9-26-0.1-34.5,11.1c4.7,14.5,10.3,28.3,21.9,36.8L1203,179.2z"/>
			
				<linearGradient id="path4282_1_" gradientUnits="userSpaceOnUse" x1="1813.8427" y1="-150.2164" x2="1864.2118" y2="-150.2164" gradientTransform="matrix(1 0 0 -1 -664.5734 32.5281)">
				<stop  offset="0" style="stop-color:#F7AA28"/>
				<stop  offset="1" style="stop-color:#D4AA00;stop-opacity:0.6667"/>
			</linearGradient>
			
				<path id="path4282" sodipodi:nodetypes="ccccc" inkscape:transform-center-y="0.63429527" inkscape:transform-center-x="-15.18513" class="st52" d="
				M1199.6,179.2c-11.8-6.1-21.8-13-43.6-14.6c-8.5,12.3-9,24.4-1.2,36.2c15.3,0.5,30.1-0.1,42-8.1L1199.6,179.2z"/>
			
				<linearGradient id="path4286_1_" gradientUnits="userSpaceOnUse" x1="1838.2295" y1="-168.1236" x2="1876.9019" y2="-168.1236" gradientTransform="matrix(1 0 0 -1 -664.5734 32.5281)">
				<stop  offset="0" style="stop-color:#E1AA00"/>
				<stop  offset="1" style="stop-color:#D4AA00;stop-opacity:0.7442"/>
			</linearGradient>
			
				<path id="path4286" sodipodi:nodetypes="ccccc" inkscape:transform-center-y="15.039814" inkscape:transform-center-x="-3.2881864" class="st53" d="
				M1196.1,175.2c-8.2,10.4-16.8,19-22.5,40.2c10.5,10.7,22.3,13.3,35.3,7.9c3.4-14.9,5.5-29.6-0.2-42.8L1196.1,175.2L1196.1,175.2z
				"/>
			
				<linearGradient id="path4290_1_" gradientUnits="userSpaceOnUse" x1="1863.5593" y1="-157.3013" x2="1913.03" y2="-157.3013" gradientTransform="matrix(1 0 0 -1 -664.5734 32.5281)">
				<stop  offset="0" style="stop-color:#F1AA00"/>
				<stop  offset="1" style="stop-color:#D4AA00;stop-opacity:0.7829"/>
			</linearGradient>
			
				<path id="path4290" sodipodi:nodetypes="ccccc" inkscape:transform-center-y="8.9309163" inkscape:transform-center-x="14.057574" class="st54" d="
				M1199,177c6.7,11.4,11.5,22.6,29.1,35.6c13.8-5.9,20.6-15.9,20.3-30c-12.6-8.6-25.5-16-39.9-15.5L1199,177L1199,177z"/>
		</g>
		<g id="g3361" transform="translate(560.49273,2.4319255)">
			<path id="path3334" d="M-169.1,113.4h-26.8v-10.8c0-3.7-0.3-6.3-0.9-7.6c-0.6-1.3-1.7-2-3.4-2c-1.6,0-2.7,0.6-3.3,1.8
				c-0.6,1.2-0.8,3.8-0.8,7.9v44c0,3.3,0.4,5.8,1.3,7.5c0.8,1.7,2.1,2.5,3.7,2.5c1.9,0,3.2-0.9,3.9-2.6c0.7-1.7,1-5,1-9.8v-11.1
				h25.3c0,7.5-0.3,13-0.8,16.8c-0.5,3.7-2.1,7.5-4.7,11.5c-2.6,3.9-6.1,6.9-10.4,8.9c-4.3,2-9.5,3-15.8,3c-8,0-14.4-1.4-19.1-4.1
				c-4.7-2.7-8-6.6-9.9-11.5s-2.9-12-2.9-21.1v-26.5c0-7.9,0.8-13.9,2.4-17.9c1.6-4,5-7.6,10.2-10.8c5.2-3.2,11.5-4.7,19-4.7
				c7.4,0,13.7,1.6,19,4.7c5.2,3.1,8.7,7.1,10.5,11.9C-170,97.9-169.1,104.6-169.1,113.4z"/>
			<path id="path3336" class="st55" d="M-132.4,57.6v25.6c2.4-2.2,5.1-3.9,7.9-5.1c2.8-1.1,5.9-1.7,9.1-1.7c5,0,9.2,1.3,12.7,3.8
				c3.5,2.5,5.6,5.4,6.4,8.8c0.8,3.3,1.2,9.3,1.2,18.1v64.3h-28.4v-65.7c0-5.4-0.3-8.9-0.8-10.5c-0.5-1.5-1.7-2.3-3.6-2.3
				c-1.7,0-2.9,0.8-3.5,2.4c-0.6,1.6-0.9,4.8-0.9,9.5v66.6h-28.4V57.6H-132.4z"/>
			<path id="path3338" class="st55" d="M-21.1,110.9v22.9c0,8.4-0.4,14.5-1.3,18.5c-0.8,3.9-2.6,7.6-5.4,11
				c-2.8,3.4-6.3,5.9-10.7,7.5c-4.3,1.6-9.3,2.4-14.9,2.4c-6.3,0-11.6-0.7-16-2.1c-4.4-1.4-7.7-3.5-10.2-6.3s-4.1-6.2-5.2-10.1
				s-1.5-9.9-1.5-17.8V113c0-8.7,0.9-15.4,2.8-20.3c1.9-4.9,5.3-8.8,10.1-11.7c4.9-3,11.1-4.4,18.7-4.4c6.4,0,11.8,0.9,16.4,2.8
				c4.6,1.9,8.1,4.4,10.6,7.4c2.5,3,4.2,6.2,5.1,9.4C-21.6,99.4-21.1,104.3-21.1,110.9z M-49.5,103.9c0-4.8-0.3-7.8-0.8-9
				c-0.5-1.2-1.6-1.9-3.3-1.9c-1.7,0-2.8,0.6-3.4,1.9c-0.6,1.2-0.8,4.3-0.8,9V146c0,4.4,0.3,7.3,0.8,8.6c0.6,1.3,1.7,2,3.3,2
				c1.7,0,2.8-0.6,3.3-1.8c0.5-1.2,0.8-3.8,0.8-7.9V103.9z"/>
			<path id="path3340" class="st55" d="M51.1,113.4H24.3v-10.8c0-3.7-0.3-6.3-0.9-7.6c-0.6-1.3-1.7-2-3.4-2c-1.6,0-2.7,0.6-3.3,1.8
				c-0.6,1.2-0.8,3.8-0.8,7.9v44c0,3.3,0.4,5.8,1.3,7.5c0.8,1.7,2.1,2.5,3.7,2.5c1.9,0,3.2-0.9,3.9-2.6c0.7-1.7,1-5,1-9.8v-11.1
				h25.3c0,7.5-0.3,13-0.8,16.8c-0.5,3.7-2.1,7.5-4.7,11.5c-2.6,3.9-6.1,6.9-10.4,8.9c-4.3,2-9.5,3-15.8,3c-8,0-14.4-1.4-19.1-4.1
				s-8-6.6-9.9-11.5s-2.9-12-2.9-21.1v-26.5c0-7.9,0.8-13.9,2.4-17.9c1.6-4,5-7.6,10.2-10.8c5.2-3.2,11.5-4.7,19-4.7
				c7.4,0,13.7,1.6,19,4.7c5.2,3.1,8.7,7.1,10.5,11.9C50.2,97.9,51.1,104.6,51.1,113.4z"/>
			<path id="path3342" class="st55" d="M123.7,110.9v22.9c0,8.4-0.4,14.5-1.3,18.5c-0.8,3.9-2.6,7.6-5.4,11
				c-2.8,3.4-6.3,5.9-10.7,7.5c-4.3,1.6-9.3,2.4-14.9,2.4c-6.3,0-11.6-0.7-16-2.1c-4.4-1.4-7.7-3.5-10.2-6.3s-4.1-6.2-5.2-10.1
				c-1-4-1.5-9.9-1.5-17.8V113c0-8.7,0.9-15.4,2.8-20.3c1.9-4.9,5.2-8.8,10.1-11.7c4.9-3,11.1-4.4,18.7-4.4c6.4,0,11.8,0.9,16.4,2.8
				c4.6,1.9,8.1,4.4,10.6,7.4c2.5,3,4.2,6.2,5.1,9.4C123.3,99.4,123.7,104.3,123.7,110.9z M95.3,103.9c0-4.8-0.3-7.8-0.8-9
				C94,93.6,92.9,93,91.2,93c-1.7,0-2.8,0.6-3.4,1.9c-0.6,1.2-0.8,4.3-0.8,9V146c0,4.4,0.3,7.3,0.8,8.6c0.6,1.3,1.7,2,3.3,2
				c1.7,0,2.8-0.6,3.3-1.8c0.5-1.2,0.8-3.8,0.8-7.9V103.9z"/>
			<path id="path3344" class="st55" d="M162.4,57.6v113.8h-29.3V57.6H162.4z"/>
			<path id="path3346" class="st55" d="M197.9,114.3h-26.6V108c0-7.2,0.8-12.8,2.5-16.7c1.7-3.9,5-7.4,10-10.4
				c5-3,11.5-4.5,19.5-4.5c9.6,0,16.9,1.7,21.7,5.1c4.9,3.4,7.8,7.6,8.8,12.5c1,4.9,1.5,15.1,1.5,30.6v46.8h-27.6v-8.3
				c-1.7,3.3-4,5.8-6.7,7.5c-2.7,1.7-6,2.5-9.8,2.5c-5,0-9.5-1.4-13.7-4.2c-4.1-2.8-6.2-8.9-6.2-18.3V143c0-7,1.1-11.7,3.3-14.3
				c2.2-2.5,7.7-5.5,16.4-8.9c9.3-3.7,14.3-6.1,15-7.4c0.7-1.3,1-3.8,1-7.7c0-4.9-0.4-8.1-1.1-9.5c-0.7-1.5-1.9-2.2-3.6-2.2
				c-1.9,0-3.1,0.6-3.6,1.9c-0.5,1.2-0.7,4.5-0.7,9.7V114.3z M206.9,127.1c-4.5,3.3-7.2,6.1-7.9,8.4c-0.7,2.3-1.1,5.5-1.1,9.7
				c0,4.8,0.3,7.9,0.9,9.4c0.6,1.4,1.9,2.1,3.8,2.1c1.8,0,2.9-0.6,3.5-1.7c0.5-1.1,0.8-4,0.8-8.7V127.1z"/>
			<path id="path3348" class="st55" d="M275,65.7v14.7h7.7v14.8H275v49.9c0,6.1,0.3,9.6,0.9,10.3c0.6,0.7,3.3,1.1,7.9,1.1v15h-11.5
				c-6.5,0-11.1-0.3-13.9-0.8c-2.8-0.5-5.2-1.8-7.3-3.7c-2.1-1.9-3.4-4.2-3.9-6.7c-0.5-2.5-0.8-8.4-0.8-17.7V95.2h-6.1V80.4h6.1
				V65.7H275z"/>
			<path id="path3350" class="st55" d="M353.3,126.5h-36.8v20.2c0,4.2,0.3,6.9,0.9,8.2c0.6,1.2,1.8,1.8,3.5,1.8
				c2.2,0,3.6-0.8,4.3-2.4c0.7-1.6,1.1-4.7,1.1-9.4v-12.3h26.9v6.9c0,5.8-0.4,10.2-1.1,13.3c-0.7,3.1-2.4,6.4-5.1,9.9
				c-2.7,3.5-6.1,6.2-10.2,7.9c-4.1,1.8-9.2,2.6-15.4,2.6c-6,0-11.3-0.9-15.9-2.6c-4.6-1.7-8.2-4.1-10.7-7.1s-4.3-6.4-5.3-10
				s-1.5-8.9-1.5-15.9v-27.2c0-8.2,1.1-14.6,3.3-19.3c2.2-4.7,5.8-8.3,10.8-10.8c5-2.5,10.8-3.8,17.3-3.8c8,0,14.5,1.5,19.7,4.5
				c5.2,3,8.8,7,10.9,12c2.1,5,3.1,12,3.1,21.1V126.5z M324.8,111.3v-6.8c0-4.8-0.3-7.9-0.8-9.4c-0.5-1.4-1.6-2.1-3.2-2.1
				c-2,0-3.2,0.6-3.7,1.8c-0.5,1.2-0.7,4.4-0.7,9.7v6.8H324.8z"/>
		</g>
		
			<g id="g3419" transform="matrix(0.24660438,0.96911624,0.96911624,-0.24660438,-187.93045,743.02795)" inkscape:transform-center-y="-6.2103269" inkscape:transform-center-x="16.694195">
			<g id="g3421" transform="matrix(-1.771561,0,0,1.771561,970.71293,-416.91532)">
				
					<radialGradient id="path3423_1_" cx="952.7548" cy="1168.2712" r="11.4654" gradientTransform="matrix(-0.4369 1.4939 1.7168 0.3801 -972.1165 -997.1967)" gradientUnits="userSpaceOnUse">
					<stop  offset="0" style="stop-color:#444300"/>
					<stop  offset="1" style="stop-color:#44AA00;stop-opacity:0.7597"/>
				</radialGradient>
				<path id="path3423" sodipodi:nodetypes="cccc" class="st56" d="M606.4,871.8c4.6-3.7,1.3-8.7,14.7-11.1c3.7,1.2,6,4.5,7.2,9.3
					C621.6,882,614.3,883,606.4,871.8z"/>
				
					<radialGradient id="path3425_1_" cx="956.153" cy="1147.4548" r="11.4653" gradientTransform="matrix(-0.5065 1.448 1.9903 0.3685 -1158.0947 -937.9535)" gradientUnits="userSpaceOnUse">
					<stop  offset="0" style="stop-color:#444300"/>
					<stop  offset="1" style="stop-color:#44AA00;stop-opacity:0.7597"/>
				</radialGradient>
				<path id="path3425" sodipodi:nodetypes="cccc" class="st57" d="M628.7,870.8c5.4-3.6,1.5-8.5,17.1-10.7c4.3,1.2,7,4.3,8.3,9
					C646.3,880.8,637.8,881.8,628.7,870.8z"/>
				
					<radialGradient id="path3427_1_" cx="1001.9417" cy="1170.722" r="11.4654" gradientTransform="matrix(-0.1439 1.2915 1.9399 -0.2322 -1447.1346 -163.432)" gradientUnits="userSpaceOnUse">
					<stop  offset="0" style="stop-color:#444300"/>
					<stop  offset="1" style="stop-color:#44AA00;stop-opacity:0.7597"/>
				</radialGradient>
				<path id="path3427" sodipodi:nodetypes="cccc" class="st58" d="M668.2,863.4c4.2-4.3-0.5-7.2,13.5-13.1c4.3-0.2,7.5,1.6,9.8,5
					C686.8,866.7,679.1,869.8,668.2,863.4z"/>
				
					<radialGradient id="path3429_1_" cx="970.9868" cy="1127.9703" r="11.4654" gradientTransform="matrix(-0.6109 1.7233 2.4005 0.4385 -1446.6692 -1304.2808)" gradientUnits="userSpaceOnUse">
					<stop  offset="0" style="stop-color:#444300"/>
					<stop  offset="1" style="stop-color:#44AA00;stop-opacity:0.7597"/>
				</radialGradient>
				<path id="path3429" sodipodi:nodetypes="cccc" class="st59" d="M652.6,865.5c6.5-4.3,1.8-10.1,20.6-12.8
					c5.2,1.4,8.4,5.1,10,10.7C673.8,877.4,663.6,878.5,652.6,865.5L652.6,865.5z"/>
			</g>
		</g>
	</g>
</g>
</svg>
