<?xml version="1.0" encoding="utf-8"?>
<svg version="1.1" id="Layer_1" xmlns="http://www.w3.org/2000/svg" xmlns:xlink="http://www.w3.org/1999/xlink" x="0px" y="0px"
	 viewBox="1207 -1080.1 3009 3000" enable-background="new 1207 -1080.1 3009 3000" xml:space="preserve">
<rect x="1238.9" y="-1045.4" shuffle="fill" fill="#FF0000" width="458.3" height="458.3"/>
<rect x="1736.9" y="-1045.4" shuffle="fill" fill="#990000" width="458.3" height="458.3"/>
<rect x="1238.9" y="-550.8" shuffle="fill" fill="#FF6600" width="458.3" height="458.3"/>
<rect x="1736.9" y="-550.7" shuffle="fill" fill="#993E00" width="458.3" height="458.3"/>
<rect x="1238.9" y="-56.2" shuffle="fill" fill="#FFFF00" width="458.3" height="458.3"/>
<rect x="1736.9" y="-56.3" shuffle="fill" fill="#999900" width="458.3" height="458.3"/>
<rect x="1238.9" y="438.4" shuffle="fill" fill="#66FF00" width="458.3" height="458.3"/>
<rect x="1736.9" y="438.5" shuffle="fill" fill="#3C9900" width="458.3" height="458.3"/>
<rect x="2234.9" y="-1045.4" shuffle="fill" fill="#FF6666" width="458.3" height="458.3"/>
<rect x="2234.9" y="-550.7" shuffle="fill" fill="#FFA466" width="458.3" height="458.3"/>
<rect x="2234.9" y="-56.3" shuffle="fill" fill="#FFFB66" width="458.3" height="458.3"/>
<rect x="2234.9" y="438.6" shuffle="fill" fill="#A2FF66" width="458.3" height="458.3"/>
<rect x="1238.9" y="933" shuffle="fill" fill="#00FFCC" width="458.3" height="458.3"/>
<rect x="1736.9" y="933.3" shuffle="fill" fill="#00997C" width="458.3" height="458.3"/>
<rect x="2234.9" y="933.3" shuffle="fill" fill="#66FFE2" width="458.3" height="458.3"/>
<rect x="1238.9" y="1427.7" shuffle="fill" fill="#00FFFF" width="458.3" height="458.3"/>
<rect x="1736.9" y="1427.8" shuffle="fill" fill="#009999" width="458.3" height="458.3"/>
<rect x="2234.9" y="1427.9" shuffle="fill" fill="#99FFFF" width="458.3" height="458.3"/>
<rect x="2732.9" y="-1045.4" shuffle="fill" fill="#0000FF" width="458.3" height="458.3"/>
<rect x="3230.9" y="-1045.4" shuffle="fill" fill="#000099" width="458.3" height="458.3"/>
<rect x="3728.9" y="-1045.4" shuffle="fill" fill="#9999FF" width="458.3" height="458.3"/>
<rect x="2732.9" y="-550.6" shuffle="fill" fill="#9900FF" width="458.3" height="458.3"/>
<rect x="3230.9" y="-550.6" shuffle="fill" fill="#470099" width="458.3" height="458.3"/>
<rect x="3728.9" y="-550.7" shuffle="fill" fill="#CC99FF" width="458.3" height="458.3"/>
<rect x="2732.9" y="-56.2" shuffle="fill" fill="#FF00CC" width="458.3" height="458.3"/>
<rect x="3230.9" y="-56.1" shuffle="fill" fill="#990066" width="458.3" height="458.3"/>
<rect x="3728.9" y="-56" shuffle="fill" fill="#FF99FF" width="458.3" height="458.3"/>
<rect x="2732.9" y="438.4" shuffle="fill" fill="#993300" width="458.3" height="458.3"/>
<rect x="2732.9" y="933.3" shuffle="fill" fill="#CCCCCC" width="458.3" height="458.3"/>
<rect x="2732.9" y="1427.5" shuffle="fill" fill="#333333" width="458.3" height="458.3"/>
<rect x="3230.9" y="1427.4" shuffle="fill" fill="#000000" width="458.3" height="458.3"/>
<rect x="3230.9" y="438.5" shuffle="fill" fill="#663300" width="458.3" height="458.3"/>
<rect x="3728.9" y="438.7" shuffle="fill" fill="#996633" width="458.3" height="458.3"/>
<rect x="3728.9" y="1428.1" shuffle="fill" fill="#666666" width="458.3" height="458.3"/>
<rect x="3230.9" y="933.3" shuffle="fill" fill="#999999" width="458.3" height="458.3"/>
<rect x="3728.9" y="933.4" shuffle="fill" fill="#FFFFFF" width="458.3" height="458.3"/>
</svg>
