<?xml version="1.0" encoding="utf-8"?>
<!-- Generator: Adobe Illustrator 19.1.0, SVG Export Plug-In . SVG Version: 6.00 Build 0)  -->
<svg version="1.1" id="Layer_1" xmlns="http://www.w3.org/2000/svg" xmlns:xlink="http://www.w3.org/1999/xlink" x="0px" y="0px"
	 width="500px" height="500px" xml:space="preserve">
<rect x="2445.9" y="-2125.5" fill="#FF0000" width="458.3" height="458.3"/>
<rect x="2943.9" y="-2125.5" fill="#990000" width="458.3" height="458.3"/>
<rect x="2445.9" y="-1630.9" fill="#FF6600" width="458.3" height="458.3"/>
<rect x="2943.9" y="-1630.8" fill="#993E00" width="458.3" height="458.3"/>
<rect x="2445.9" y="-1136.3" fill="#FFFF00" width="458.3" height="458.3"/>
<rect x="2943.9" y="-1136.4" fill="#999900" width="458.3" height="458.3"/>
<rect x="2445.9" y="-641.7" fill="#66FF00" width="458.3" height="458.3"/>
<rect x="2943.9" y="-641.6" fill="#3C9900" width="458.3" height="458.3"/>
<rect x="3441.9" y="-2125.5" fill="#FF6666" width="458.3" height="458.3"/>
<rect x="3441.9" y="-1630.8" fill="#FFA466" width="458.3" height="458.3"/>
<rect x="3441.9" y="-1136.4" fill="#FFFB66" width="458.3" height="458.3"/>
<rect x="3441.9" y="-641.5" fill="#A2FF66" width="458.3" height="458.3"/>
<rect x="2445.9" y="-147.1" fill="#00FFCC" width="458.3" height="458.3"/>
<rect x="2943.9" y="-146.8" fill="#00997C" width="458.3" height="458.3"/>
<rect x="3441.9" y="-146.8" fill="#66FFE2" width="458.3" height="458.3"/>
<rect x="2445.9" y="347.6" fill="#00FFFF" width="458.3" height="458.3"/>
<rect x="2943.9" y="347.7" fill="#009999" width="458.3" height="458.3"/>
<rect x="3441.9" y="347.8" fill="#99FFFF" width="458.3" height="458.3"/>
<rect x="3939.9" y="-2125.5" fill="#0000FF" width="458.3" height="458.3"/>
<rect x="4437.9" y="-2125.5" fill="#000099" width="458.3" height="458.3"/>
<rect x="4935.9" y="-2125.5" fill="#9999FF" width="458.3" height="458.3"/>
<rect x="3939.9" y="-1630.7" fill="#9900FF" width="458.3" height="458.3"/>
<rect x="4437.9" y="-1630.7" fill="#470099" width="458.3" height="458.3"/>
<rect x="4935.9" y="-1630.8" fill="#CC99FF" width="458.3" height="458.3"/>
<rect x="3939.9" y="-1136.3" fill="#FF00CC" width="458.3" height="458.3"/>
<rect x="4437.9" y="-1136.2" fill="#990066" width="458.3" height="458.3"/>
<rect x="4935.9" y="-1136.1" fill="#FF99FF" width="458.3" height="458.3"/>
<rect x="3939.9" y="-641.7" fill="#993300" width="458.3" height="458.3"/>
<rect x="3939.9" y="-146.8" fill="#CCCCCC" width="458.3" height="458.3"/>
<rect x="3939.9" y="347.4" fill="#333333" width="458.3" height="458.3"/>
<rect x="4437.9" y="347.3" width="458.3" height="458.3"/>
<rect x="4437.9" y="-641.6" fill="#663300" width="458.3" height="458.3"/>
<rect x="4935.9" y="-641.4" fill="#996633" width="458.3" height="458.3"/>
<rect x="4935.9" y="348" fill="#666666" width="458.3" height="458.3"/>
<rect x="4437.9" y="-146.8" fill="#999999" width="458.3" height="458.3"/>
<rect x="4935.9" y="-146.7" fill="#FFFFFF" width="458.3" height="458.3"/>
</svg>
